<svg version="1.1" xmlns="http://www.w3.org/2000/svg" viewBox="0 0 396.3557254090491 231.99329274062893" width="396.3557254090491" height="231.99329274062893">
  <!-- svg-source:excalidraw -->
  
  <defs>
    <style class="style-fonts">
      @font-face {
        font-family: "Virgil";
        src: url("https://excalidraw.com/Virgil.woff2");
      }
      @font-face {
        font-family: "Cascadia";
        src: url("https://excalidraw.com/Cascadia.woff2");
      }
      @font-face {
        font-family: "Assistant";
        src: url("https://excalidraw.com/Assistant-Regular.woff2");
      }
    </style>
    
  </defs>
  <g stroke-linecap="round" transform="translate(10 10) rotate(0 188.17786270452456 26.824215599952367)"><path d="M13.41 0 C87.26 0.75, 159.52 1, 362.94 0 C369.23 3.07, 374.35 3.65, 376.36 13.41 C374.59 21.41, 376.73 30.51, 376.36 40.24 C377.25 49.81, 373.09 53.52, 362.94 53.65 C267.98 57.72, 171.79 55.71, 13.41 53.65 C3.96 56.27, -2.31 49.2, 0 40.24 C-2.59 32.33, 0.21 21.19, 0 13.41 C2.26 7.02, 2.47 3.31, 13.41 0" stroke="none" stroke-width="0" fill="#f8f9fa"></path><path d="M13.41 0 C101.47 2.86, 186.69 2.63, 362.94 0 M13.41 0 C118.72 -1.57, 222.5 -2, 362.94 0 M362.94 0 C370.92 -0.2, 374.46 5.62, 376.36 13.41 M362.94 0 C372.41 0.84, 375.76 5.26, 376.36 13.41 M376.36 13.41 C375.42 19.99, 375.5 26.17, 376.36 40.24 M376.36 13.41 C375.92 23.14, 376.3 34.77, 376.36 40.24 M376.36 40.24 C377.41 50.95, 369.95 53.38, 362.94 53.65 M376.36 40.24 C376.3 46.92, 371.1 52.05, 362.94 53.65 M362.94 53.65 C239.3 55.7, 112.62 55.52, 13.41 53.65 M362.94 53.65 C281.1 54.19, 201.04 53.77, 13.41 53.65 M13.41 53.65 C4.66 52.76, -1.4 48.59, 0 40.24 M13.41 53.65 C2.92 52.13, -0.8 47.37, 0 40.24 M0 40.24 C-1.59 33.29, -0.6 24.58, 0 13.41 M0 40.24 C-0.88 30.17, -0.39 21.75, 0 13.41 M0 13.41 C1.78 4.2, 5.51 1.35, 13.41 0 M0 13.41 C-1.27 5.64, 6.65 1.86, 13.41 0" stroke="#343a40" stroke-width="2" fill="none"></path></g><g stroke-linecap="round" transform="translate(13.69541522689451 64.78490812674863) rotate(0 69.95518106720692 19.041055201725158)"><path d="M9.52 0 C47.68 0.75, 78.56 2.51, 130.39 0 C134.73 -0.82, 140.14 -0.37, 139.91 9.52 C140.59 14.22, 140.64 18.26, 139.91 28.56 C141.11 34.78, 135.66 36.27, 130.39 38.08 C85.14 40.42, 46.31 42.75, 9.52 38.08 C0.86 38.11, 1.22 37.27, 0 28.56 C0.71 22.84, 2.36 21.7, 0 9.52 C-2 6.49, 5.21 -1.81, 9.52 0" stroke="none" stroke-width="0" fill="#b2f2bb"></path><path d="M9.52 0 C35.92 0.31, 63.32 -0.94, 130.39 0 M9.52 0 C55.88 -0.81, 103.71 -1.05, 130.39 0 M130.39 0 C134.84 1.15, 140.37 3.9, 139.91 9.52 M130.39 0 C136.14 0.78, 139.23 4.57, 139.91 9.52 M139.91 9.52 C138.84 13.58, 141.42 20.32, 139.91 28.56 M139.91 9.52 C139.88 14.56, 140.35 19.09, 139.91 28.56 M139.91 28.56 C137.97 34.64, 136.69 36.12, 130.39 38.08 M139.91 28.56 C139.13 33.31, 138.06 39.07, 130.39 38.08 M130.39 38.08 C84.06 38.49, 37.71 36.6, 9.52 38.08 M130.39 38.08 C92.46 37.65, 52.89 37.76, 9.52 38.08 M9.52 38.08 C1.77 37.49, -1.35 33.59, 0 28.56 M9.52 38.08 C2.38 36.27, -0.55 33.84, 0 28.56 M0 28.56 C-0.53 23.09, 1.24 19.93, 0 9.52 M0 28.56 C-0.12 24.3, 1 18.67, 0 9.52 M0 9.52 C1.04 4.52, 2.07 1.01, 9.52 0 M0 9.52 C2.18 5.03, 1.03 0.47, 9.52 0" stroke="#1e1e1e" stroke-width="2" fill="none"></path></g><g stroke-linecap="round" transform="translate(21.054312173005087 16.724631723644052) rotate(0 22.045947013559157 19.596397345385867)"><path d="M20.31 0.15 C24.78 -0.33, 31.1 1.14, 35.01 3.66 C38.92 6.17, 42.69 11.2, 43.78 15.25 C44.86 19.3, 43.74 24.28, 41.54 27.98 C39.33 31.68, 34.79 35.63, 30.55 37.44 C26.31 39.25, 20.57 39.95, 16.07 38.82 C11.58 37.69, 6.17 34.27, 3.57 30.64 C0.97 27.02, -0.11 21.2, 0.48 17.07 C1.08 12.93, 3.63 8.75, 7.15 5.83 C10.67 2.91, 19.17 0.46, 21.61 -0.45 C24.05 -1.36, 21.78 -0.05, 21.78 0.38 M26.21 -0.17 C30.61 0.33, 35.71 3.7, 38.57 6.84 C41.42 9.98, 43.3 14.5, 43.35 18.68 C43.4 22.86, 41.69 28.55, 38.86 31.94 C36.02 35.32, 30.91 38.17, 26.35 38.98 C21.79 39.8, 15.58 38.91, 11.47 36.83 C7.36 34.76, 3.43 30.54, 1.69 26.53 C-0.06 22.52, -0.57 16.76, 1 12.77 C2.57 8.78, 6.89 4.8, 11.1 2.6 C15.32 0.39, 23.87 -0.12, 26.28 -0.47 C28.69 -0.81, 25.65 0.17, 25.56 0.53" stroke="none" stroke-width="0" fill="#d0bfff"></path><path d="M25.87 0.05 C30.26 0.48, 35.75 3.21, 38.84 6.47 C41.92 9.74, 44.32 15.39, 44.38 19.64 C44.43 23.9, 42.21 28.83, 39.17 32.01 C36.12 35.19, 30.75 37.97, 26.12 38.74 C21.49 39.5, 15.57 38.7, 11.39 36.61 C7.22 34.52, 2.81 30.21, 1.08 26.19 C-0.64 22.18, -0.67 16.47, 1.05 12.52 C2.77 8.57, 7.1 4.51, 11.38 2.48 C15.66 0.46, 23.98 0.56, 26.75 0.35 C29.51 0.14, 27.92 0.83, 27.96 1.22 M26.87 -0.26 C31.39 0.31, 36.39 3.68, 39.32 7.2 C42.26 10.71, 44.58 16.43, 44.5 20.84 C44.42 25.24, 42.08 30.64, 38.83 33.63 C35.59 36.62, 29.79 38.46, 25.01 38.79 C20.24 39.11, 14.31 37.78, 10.2 35.58 C6.08 33.38, 1.88 29.5, 0.34 25.58 C-1.19 21.67, -1.03 16.08, 1.01 12.11 C3.05 8.14, 8.25 3.77, 12.58 1.77 C16.9 -0.22, 24.68 0.33, 26.96 0.14 C29.24 -0.04, 26.44 0.35, 26.27 0.64" stroke="#1e1e1e" stroke-width="2" fill="none"></path></g><g transform="translate(26.469603823484363 72.15993702278865) rotate(0 49.229949951171875 12.5)"><text x="0" y="0" font-family="Virgil, Segoe UI Emoji" font-size="20px" fill="#1e1e1e" text-anchor="start" style="white-space: pre;" direction="ltr" dominant-baseline="text-before-edge">category0</text></g><g transform="translate(143.336722235519 24.884587414828275) rotate(0 48.289955139160156 12.5)"><text x="0" y="0" font-family="Virgil, Segoe UI Emoji" font-size="20px" fill="#1e1e1e" text-anchor="start" style="white-space: pre;" direction="ltr" dominant-baseline="text-before-edge">WELCOME</text></g><g stroke-linecap="round" transform="translate(16.860648790574146 102.0680453401028) rotate(0 48.31704558175966 10.98114672312704)"><path d="M5.49 0 C35.94 -3.03, 66.26 -2.46, 91.14 0 C92.7 0.84, 97.64 4.89, 96.63 5.49 C96.05 8.64, 98.45 12.11, 96.63 16.47 C93.37 18.08, 94.96 19.6, 91.14 21.96 C59.61 19.34, 24.58 20.18, 5.49 21.96 C2.65 24.26, -0.99 22.27, 0 16.47 C-1.04 12.3, -1.31 10.73, 0 5.49 C-3.25 2.19, 1.45 -3.38, 5.49 0" stroke="none" stroke-width="0" fill="#40c057"></path><path d="M5.49 0 C35 -0.32, 63.51 0.26, 91.14 0 M5.49 0 C32.91 0.14, 61.19 -0.06, 91.14 0 M91.14 0 C93.23 -1.68, 97.69 3.53, 96.63 5.49 M91.14 0 C94.35 0.08, 98.5 -0.29, 96.63 5.49 M96.63 5.49 C96.86 7.99, 97.74 10.45, 96.63 16.47 M96.63 5.49 C96.47 10.13, 96.4 13.97, 96.63 16.47 M96.63 16.47 C96.03 21.52, 93.23 22.36, 91.14 21.96 M96.63 16.47 C97.63 19.88, 96.67 20.2, 91.14 21.96 M91.14 21.96 C57.13 20.73, 23.65 21.94, 5.49 21.96 M91.14 21.96 C61.34 23.12, 32.36 21.8, 5.49 21.96 M5.49 21.96 C3.34 21.13, -0.13 20.01, 0 16.47 M5.49 21.96 C0.51 20.22, -1.74 19.35, 0 16.47 M0 16.47 C-0.81 13.94, -0.46 10.22, 0 5.49 M0 16.47 C-0.14 11.77, -0.03 8, 0 5.49 M0 5.49 C1.34 2.39, 0.12 -0.01, 5.49 0 M0 5.49 C0.8 1.91, 3.61 -0.36, 5.49 0" stroke="#1e1e1e" stroke-width="2" fill="none"></path></g><g transform="translate(26.36926192541307 104.28799256695038) rotate(0 31.048072814941406 10)"><text x="0" y="0" font-family="Virgil, Segoe UI Emoji" font-size="16px" fill="#1e1e1e" text-anchor="start" style="white-space: pre;" direction="ltr" dominant-baseline="text-before-edge">article0</text></g><g stroke-linecap="round" transform="translate(17.730316966983423 147.87853580420415) rotate(0 48.31704558175966 10.98114672312704)"><path d="M5.49 0 C32.85 -2.05, 56.09 1.85, 91.14 0 C95.68 -0.75, 99.81 4.35, 96.63 5.49 C97.39 8.03, 97.41 14.02, 96.63 16.47 C96.45 19.27, 95.35 21.69, 91.14 21.96 C68.13 21.33, 39.66 23.94, 5.49 21.96 C-0.55 22.88, -3.4 18.25, 0 16.47 C1.12 13.05, 1.1 7.06, 0 5.49 C-2.17 -0.59, -1.11 -2.64, 5.49 0" stroke="none" stroke-width="0" fill="#e9ecef"></path><path d="M5.49 0 C34.09 0.87, 64.57 -1.52, 91.14 0 M5.49 0 C32.14 0.45, 60.12 0.46, 91.14 0 M91.14 0 C94.83 0.4, 95.93 0.25, 96.63 5.49 M91.14 0 C97.05 -0.31, 94.66 3.94, 96.63 5.49 M96.63 5.49 C97.46 7.9, 97.18 12.1, 96.63 16.47 M96.63 5.49 C97.17 9.59, 96.49 13.27, 96.63 16.47 M96.63 16.47 C98.48 19.53, 93.1 20.16, 91.14 21.96 M96.63 16.47 C94.96 19.27, 93.88 21.13, 91.14 21.96 M91.14 21.96 C64.97 22.65, 39.76 21.37, 5.49 21.96 M91.14 21.96 C63.59 22.34, 38.54 21.45, 5.49 21.96 M5.49 21.96 C0.11 20.25, 1.81 20.58, 0 16.47 M5.49 21.96 C2.12 20.81, -1.88 21.31, 0 16.47 M0 16.47 C0.18 14.19, 0.33 9.71, 0 5.49 M0 16.47 C-0.13 12.22, -0.12 8.61, 0 5.49 M0 5.49 C1.55 2.63, 3.23 0.89, 5.49 0 M0 5.49 C-0.12 1.48, 3.84 -0.12, 5.49 0" stroke="#1e1e1e" stroke-width="2" fill="none"></path></g><g transform="translate(22.124322167345554 151.89899778125437) rotate(0 42.52809143066406 10)"><text x="0" y="0" font-family="Virgil, Segoe UI Emoji" font-size="16px" fill="#1e1e1e" text-anchor="start" style="white-space: pre;" direction="ltr" dominant-baseline="text-before-edge">new article</text></g><g stroke-linecap="round" transform="translate(18.034313916172664 123.65011837943075) rotate(0 48.31704558175966 10.98114672312704)"><path d="M5.49 0 C41.36 3.17, 70.21 -1.93, 91.14 0 C93.59 -0.1, 95.56 2.05, 96.63 5.49 C97.17 9.14, 95.57 13.43, 96.63 16.47 C95.03 19.75, 93.35 22.56, 91.14 21.96 C70.9 20.33, 43.4 22.63, 5.49 21.96 C2.61 20.62, -1.71 16.83, 0 16.47 C-1.37 12.76, 1.09 9.15, 0 5.49 C2.34 3.21, -0.05 0.81, 5.49 0" stroke="none" stroke-width="0" fill="#40c057"></path><path d="M5.49 0 C32.37 0.72, 59.87 0.46, 91.14 0 M5.49 0 C26.14 -0.75, 48.21 -1.25, 91.14 0 M91.14 0 C93.8 -1.99, 94.8 3.29, 96.63 5.49 M91.14 0 C94.49 -1.7, 97.13 0.16, 96.63 5.49 M96.63 5.49 C96.22 8.08, 96.34 11.7, 96.63 16.47 M96.63 5.49 C96.21 8.84, 96.28 12.71, 96.63 16.47 M96.63 16.47 C96.16 20.31, 94.29 22.3, 91.14 21.96 M96.63 16.47 C96.24 19.61, 96.42 22.54, 91.14 21.96 M91.14 21.96 C63.51 23.73, 31.96 22.58, 5.49 21.96 M91.14 21.96 C62.4 22.44, 32.75 22.14, 5.49 21.96 M5.49 21.96 C2.89 21.47, 0.61 18.76, 0 16.47 M5.49 21.96 C0.82 24.19, -0.21 19.31, 0 16.47 M0 16.47 C1.03 15.05, 0.08 12.57, 0 5.49 M0 16.47 C0.32 12.74, -0.51 8.39, 0 5.49 M0 5.49 C-0.85 0.85, 0.8 1.67, 5.49 0 M0 5.49 C0.63 1, 1.96 0.75, 5.49 0" stroke="#1e1e1e" stroke-width="2" fill="none"></path></g><g transform="translate(28.138985542285923 125.87006560627833) rotate(0 27.712066650390625 10)"><text x="0" y="0" font-family="Virgil, Segoe UI Emoji" font-size="16px" fill="#1e1e1e" text-anchor="start" style="white-space: pre;" direction="ltr" dominant-baseline="text-before-edge">article1</text></g><g stroke-linecap="round" transform="translate(12.662565870370827 183.91118233717862) rotate(0 69.95518106720692 19.041055201725158)"><path d="M9.52 0 C36.67 -3.25, 65.59 -0.16, 130.39 0 C134.49 -3.44, 142.21 2.88, 139.91 9.52 C137.46 12.97, 141.44 21.27, 139.91 28.56 C141.9 37.74, 136.53 40.73, 130.39 38.08 C108.82 41.56, 83.99 36.61, 9.52 38.08 C4.69 34.89, -3.15 34.27, 0 28.56 C1.68 24.1, 1.3 19.29, 0 9.52 C-3.31 3.14, 1.13 -3.49, 9.52 0" stroke="none" stroke-width="0" fill="#b2f2bb"></path><path d="M9.52 0 C38.76 -0.73, 72.37 2.46, 130.39 0 M9.52 0 C49.74 1.36, 91.1 1.11, 130.39 0 M130.39 0 C136.46 1.15, 140.5 1.98, 139.91 9.52 M130.39 0 C134.71 1.29, 140.29 3.13, 139.91 9.52 M139.91 9.52 C140.14 16.17, 138.22 23.66, 139.91 28.56 M139.91 9.52 C140.6 15.02, 139.1 22.45, 139.91 28.56 M139.91 28.56 C141.25 35.04, 137.74 38.23, 130.39 38.08 M139.91 28.56 C142.08 33.5, 136.77 39.72, 130.39 38.08 M130.39 38.08 C84.87 35.59, 42.03 37.02, 9.52 38.08 M130.39 38.08 C93.78 37.46, 54.9 37.67, 9.52 38.08 M9.52 38.08 C4.65 36.91, 1.93 33.53, 0 28.56 M9.52 38.08 C1.16 39.7, 0.07 34.91, 0 28.56 M0 28.56 C-1.79 24.06, 0.32 16.92, 0 9.52 M0 28.56 C0.77 24.08, -0.45 21.08, 0 9.52 M0 9.52 C-0.26 1.46, 1.81 -0.15, 9.52 0 M0 9.52 C1.52 4.52, 1.1 -2, 9.52 0" stroke="#1e1e1e" stroke-width="2" fill="none"></path></g><g transform="translate(25.43675446696068 191.28621123321864) rotate(0 45.05995178222656 12.5)"><text x="0" y="0" font-family="Virgil, Segoe UI Emoji" font-size="20px" fill="#1e1e1e" text-anchor="start" style="white-space: pre;" direction="ltr" dominant-baseline="text-before-edge">category1</text></g></svg>