<svg version="1.1" xmlns="http://www.w3.org/2000/svg" viewBox="0 0 382.98300258659356 252.5927441477843" width="382.98300258659356" height="252.5927441477843">
  <!-- svg-source:excalidraw -->
  
  <defs>
    <style class="style-fonts">
      @font-face {
        font-family: "Virgil";
        src: url("https://excalidraw.com/Virgil.woff2");
      }
      @font-face {
        font-family: "Cascadia";
        src: url("https://excalidraw.com/Cascadia.woff2");
      }
      @font-face {
        font-family: "Assistant";
        src: url("https://excalidraw.com/Assistant-Regular.woff2");
      }
    </style>
    
  </defs>
  <g stroke-linecap="round" transform="translate(10 10) rotate(0 181.49150129329678 26.824215599952367)"><path d="M13.41 0 C113.08 -0.76, 210.29 2.25, 349.57 0 C362.09 2.95, 359.83 4.11, 362.98 13.41 C364.62 18.69, 365.83 32.4, 362.98 40.24 C361.14 46.84, 361.61 50.21, 349.57 53.65 C228.75 55.61, 107.48 54.62, 13.41 53.65 C2.82 51.04, -3.19 51.45, 0 40.24 C-2.01 28.57, -1.47 18.39, 0 13.41 C1.52 6.04, 6.31 -0.02, 13.41 0" stroke="none" stroke-width="0" fill="#f8f9fa"></path><path d="M13.41 0 C101.9 0.51, 192.73 -0.97, 349.57 0 M13.41 0 C148.03 1.92, 282.23 1.96, 349.57 0 M349.57 0 C357.97 1.49, 362.84 6.17, 362.98 13.41 M349.57 0 C358.77 -1.97, 365.12 3.7, 362.98 13.41 M362.98 13.41 C363.62 18.59, 362.23 25.79, 362.98 40.24 M362.98 13.41 C363.64 23.46, 362.96 34.77, 362.98 40.24 M362.98 40.24 C363.13 48.45, 359.8 53.05, 349.57 53.65 M362.98 40.24 C361.8 48.8, 356.73 52.72, 349.57 53.65 M349.57 53.65 C255.18 52.46, 160.1 53.1, 13.41 53.65 M349.57 53.65 C281.13 51.91, 213.9 52.25, 13.41 53.65 M13.41 53.65 C4.66 53.36, -0.47 47.56, 0 40.24 M13.41 53.65 C3.76 55.03, 0.17 47.04, 0 40.24 M0 40.24 C-0.17 31.09, -0.92 21.76, 0 13.41 M0 40.24 C1.2 32.86, -0.67 23.9, 0 13.41 M0 13.41 C0.6 3.18, 2.79 1.01, 13.41 0 M0 13.41 C1.13 4.13, 6 1.57, 13.41 0" stroke="#1e1e1e" stroke-width="2" fill="none"></path></g><g stroke-linecap="round" transform="translate(13.69541522689451 64.78490812674863) rotate(0 69.95518106720692 19.041055201725158)"><path d="M9.52 0 C42.74 3.57, 80.96 4.34, 130.39 0 C133.58 -0.36, 140.54 5.68, 139.91 9.52 C142.42 17.33, 138.28 19.19, 139.91 28.56 C143.01 31.47, 138.93 37.79, 130.39 38.08 C88.25 35.91, 42.83 35.21, 9.52 38.08 C-0.01 40.36, 1.69 33.53, 0 28.56 C-1.37 20.07, 1.66 19.22, 0 9.52 C1.84 3.16, 5.82 3.36, 9.52 0" stroke="none" stroke-width="0" fill="#b2f2bb"></path><path d="M9.52 0 C49.85 -1.61, 89.36 -1.92, 130.39 0 M9.52 0 C37.23 -0.04, 64.56 0.19, 130.39 0 M130.39 0 C136.6 1.7, 140.13 1.46, 139.91 9.52 M130.39 0 C138.88 -0.77, 138.98 4.03, 139.91 9.52 M139.91 9.52 C139.15 14.16, 141.64 20.63, 139.91 28.56 M139.91 9.52 C140.19 14.42, 140.14 17.94, 139.91 28.56 M139.91 28.56 C141.2 34.31, 135.71 37.75, 130.39 38.08 M139.91 28.56 C138.12 33.98, 136.34 38.45, 130.39 38.08 M130.39 38.08 C95.76 36.53, 57.41 37.34, 9.52 38.08 M130.39 38.08 C101.2 37.06, 71.61 37.1, 9.52 38.08 M9.52 38.08 C2.71 36.46, -0.62 36.11, 0 28.56 M9.52 38.08 C3.35 35.94, 0.53 34.68, 0 28.56 M0 28.56 C-0.88 19.98, 0.11 11.96, 0 9.52 M0 28.56 C-1.04 23.45, 0.1 17.72, 0 9.52 M0 9.52 C-1.68 4.19, 4.16 -0.3, 9.52 0 M0 9.52 C1.53 4.74, 3.03 0.79, 9.52 0" stroke="#1e1e1e" stroke-width="2" fill="none"></path></g><g stroke-linecap="round" transform="translate(14.405664758477883 104.47760905105315) rotate(0 69.95518106720692 19.041055201725158)"><path d="M9.52 0 C41.63 1.64, 63.44 -1.68, 130.39 0 C137.36 2.5, 140.36 4.47, 139.91 9.52 C138.4 11.3, 143.1 14.24, 139.91 28.56 C142.1 34.62, 138.73 38.83, 130.39 38.08 C93.96 34.32, 57.65 39.21, 9.52 38.08 C4.87 36.7, -0.56 32.71, 0 28.56 C1.61 25.59, 1.91 19.61, 0 9.52 C2.65 6.53, 2.56 -3.42, 9.52 0" stroke="none" stroke-width="0" fill="#b2f2bb"></path><path d="M9.52 0 C56.78 -0.59, 98.63 1.09, 130.39 0 M9.52 0 C51.06 0.12, 93.08 0.22, 130.39 0 M130.39 0 C136.96 -1.72, 141.77 2.51, 139.91 9.52 M130.39 0 C135.8 0.86, 140.38 3.79, 139.91 9.52 M139.91 9.52 C141.5 12.44, 138.5 19.1, 139.91 28.56 M139.91 9.52 C140.01 14.21, 140.55 19.31, 139.91 28.56 M139.91 28.56 C138.88 34.58, 135.18 37.27, 130.39 38.08 M139.91 28.56 C139.51 35.28, 136.59 39.19, 130.39 38.08 M130.39 38.08 C101.62 37.92, 75.64 36.17, 9.52 38.08 M130.39 38.08 C102.58 37.72, 74.35 37.05, 9.52 38.08 M9.52 38.08 C2.56 39.29, 0.15 33.05, 0 28.56 M9.52 38.08 C3.7 37.85, 2.15 34.68, 0 28.56 M0 28.56 C0.18 21.69, -0.51 19.9, 0 9.52 M0 28.56 C0.46 20.72, -0.63 14.6, 0 9.52 M0 9.52 C0.98 2.88, 4.5 1.36, 9.52 0 M0 9.52 C-0.15 3.97, 2.73 0.94, 9.52 0" stroke="#1e1e1e" stroke-width="2" fill="none"></path></g><g stroke-linecap="round" transform="translate(21.054312173005087 16.724631723644052) rotate(0 22.045947013559186 19.596397345385867)"><path d="M23.27 -0.09 C27.73 -0.23, 33.48 2.22, 36.93 5.05 C40.38 7.88, 43.4 12.59, 43.96 16.89 C44.53 21.19, 42.85 27.34, 40.31 30.84 C37.78 34.35, 33.28 36.77, 28.78 37.92 C24.28 39.07, 17.78 39.4, 13.32 37.74 C8.86 36.09, 4.11 31.71, 2.03 27.98 C-0.05 24.24, -0.28 19.29, 0.85 15.33 C1.97 11.37, 4.93 6.77, 8.8 4.22 C12.67 1.66, 21.49 0.66, 24.08 0.03 C26.66 -0.61, 24.33 0.11, 24.28 0.38 M21.57 -0.63 C25.95 -1.18, 31.54 1.45, 35.29 4.11 C39.04 6.77, 42.96 11.38, 44.06 15.34 C45.17 19.3, 44.09 24.08, 41.93 27.87 C39.77 31.66, 35.58 36.41, 31.12 38.07 C26.66 39.73, 19.65 39.26, 15.15 37.83 C10.66 36.4, 6.59 32.96, 4.17 29.5 C1.74 26.04, 0.08 21.11, 0.63 17.09 C1.18 13.07, 4.1 8.2, 7.47 5.38 C10.85 2.56, 18.68 1.08, 20.87 0.19 C23.05 -0.69, 20.64 -0.12, 20.58 0.07" stroke="none" stroke-width="0" fill="#d0bfff"></path><path d="M24.14 -0.07 C28.65 0, 34.56 2.66, 37.94 5.65 C41.32 8.64, 44.13 13.6, 44.42 17.86 C44.72 22.13, 42.52 27.83, 39.73 31.24 C36.94 34.64, 32.13 37.26, 27.67 38.3 C23.22 39.34, 17.24 39.29, 13 37.49 C8.76 35.69, 4.32 31.39, 2.24 27.51 C0.16 23.63, -0.74 18.25, 0.51 14.22 C1.77 10.18, 5.85 5.59, 9.77 3.3 C13.68 1.02, 21.53 0.96, 24.01 0.51 C26.48 0.06, 24.54 0.35, 24.6 0.61 M19.65 -0.04 C23.91 -0.67, 30.11 0.76, 34.03 3.19 C37.96 5.63, 41.86 10.4, 43.19 14.57 C44.52 18.73, 44.07 24.32, 42.02 28.16 C39.96 32.01, 35.16 36.05, 30.86 37.65 C26.56 39.26, 20.66 39.01, 16.2 37.81 C11.74 36.62, 6.9 33.87, 4.12 30.48 C1.33 27.09, -0.91 21.59, -0.5 17.45 C-0.09 13.32, 3.15 8.57, 6.58 5.66 C10.02 2.75, 17.89 0.94, 20.1 -0.02 C22.32 -0.99, 19.91 -0.55, 19.9 -0.14" stroke="#1e1e1e" stroke-width="2" fill="none"></path></g><g transform="translate(26.469603823484363 72.15993702279047) rotate(0 49.229949951171875 12.5)"><text x="0" y="0" font-family="Virgil, Segoe UI Emoji" font-size="20px" fill="#1e1e1e" text-anchor="start" style="white-space: pre;" direction="ltr" dominant-baseline="text-before-edge">category0</text></g><g transform="translate(143.336722235519 24.884587414826456) rotate(0 48.289955139160156 12.5)"><text x="0" y="0" font-family="Virgil, Segoe UI Emoji" font-size="20px" fill="#1e1e1e" text-anchor="start" style="white-space: pre;" direction="ltr" dominant-baseline="text-before-edge">WELCOME</text></g><g transform="translate(27.49034620396162 110.05702000528436) rotate(0 45.05995178222656 12.5)"><text x="0" y="0" font-family="Virgil, Segoe UI Emoji" font-size="20px" fill="#1e1e1e" text-anchor="start" style="white-space: pre;" direction="ltr" dominant-baseline="text-before-edge">category1</text></g><g stroke-linecap="round" transform="translate(16.577964747959413 156.75491932239493) rotate(0 69.95518106720692 19.041055201725158)"><path d="M9.52 0 C36.16 0.32, 69.4 0.12, 130.39 0 C137.49 -0.44, 140.73 1.27, 139.91 9.52 C141.83 15.97, 138.35 18.67, 139.91 28.56 C137.72 32.55, 135.08 34.85, 130.39 38.08 C89 41.85, 51 38.58, 9.52 38.08 C-0.25 40.48, -0.17 33.52, 0 28.56 C-0.92 27.33, -2.53 18.85, 0 9.52 C-2.79 6.07, 4.67 -3.14, 9.52 0" stroke="none" stroke-width="0" fill="#e9ecef"></path><path d="M9.52 0 C46.46 -1.94, 85.48 -0.71, 130.39 0 M9.52 0 C48.25 1.4, 87.94 -0.18, 130.39 0 M130.39 0 C138.36 -0.71, 140.17 4.26, 139.91 9.52 M130.39 0 C136.91 -0.84, 141.4 2.48, 139.91 9.52 M139.91 9.52 C139.11 13.92, 140.18 18.86, 139.91 28.56 M139.91 9.52 C139.47 15.21, 139.86 22.24, 139.91 28.56 M139.91 28.56 C138.36 33.53, 137.24 37.72, 130.39 38.08 M139.91 28.56 C140.13 34.58, 136.2 36.22, 130.39 38.08 M130.39 38.08 C95.99 38.63, 65.12 40.04, 9.52 38.08 M130.39 38.08 C94.78 37.55, 59.46 37.19, 9.52 38.08 M9.52 38.08 C5.11 39.67, -1.79 34.9, 0 28.56 M9.52 38.08 C3.87 36.59, -1.94 36.08, 0 28.56 M0 28.56 C1.32 21.79, 0.68 14.9, 0 9.52 M0 28.56 C0.7 23.02, 0.9 14.75, 0 9.52 M0 9.52 C-0.2 3.52, 4.56 0.25, 9.52 0 M0 9.52 C0.83 1.11, 4.78 1.25, 9.52 0" stroke="#1e1e1e" stroke-width="2" fill="none"></path></g><g stroke-linecap="round" transform="translate(15.602672580450417 204.51063374433397) rotate(0 69.95518106720692 19.041055201725158)"><path d="M9.52 0 C55.89 0.67, 103.59 -1.77, 130.39 0 C137.55 -1.91, 138.26 0.57, 139.91 9.52 C138.81 13.02, 138.04 15.33, 139.91 28.56 C138.25 31.68, 138.26 39.65, 130.39 38.08 C91.3 39.07, 42.08 42.08, 9.52 38.08 C3.01 36.69, -2.82 38.05, 0 28.56 C-2.17 22.47, -2.59 21.67, 0 9.52 C1.5 0.03, 4.76 -2.76, 9.52 0" stroke="none" stroke-width="0" fill="#e9ecef"></path><path d="M9.52 0 C57.77 0.9, 105.06 -1.29, 130.39 0 M9.52 0 C40.04 -1.76, 72.53 -1.42, 130.39 0 M130.39 0 C136.99 1.09, 140.06 2.44, 139.91 9.52 M130.39 0 C138.22 -0.69, 138.73 2.79, 139.91 9.52 M139.91 9.52 C140.14 13.64, 140.75 16.5, 139.91 28.56 M139.91 9.52 C139.95 15.54, 139.12 21.97, 139.91 28.56 M139.91 28.56 C140.41 34.55, 136.93 37.8, 130.39 38.08 M139.91 28.56 C139.37 33.04, 136.03 39.47, 130.39 38.08 M130.39 38.08 C93.02 40.23, 55.86 37.88, 9.52 38.08 M130.39 38.08 C99.01 37.82, 70.29 38.93, 9.52 38.08 M9.52 38.08 C1.39 38.08, 0.6 33.61, 0 28.56 M9.52 38.08 C1.24 39.25, 1.13 34.57, 0 28.56 M0 28.56 C0.53 21.22, 0.64 13.39, 0 9.52 M0 28.56 C0.67 22.39, -0.21 18.05, 0 9.52 M0 9.52 C1.39 3.42, 3.9 -1.8, 9.52 0 M0 9.52 C1.6 4.42, 2 -1.49, 9.52 0" stroke="#1e1e1e" stroke-width="2" fill="none"></path></g><g transform="translate(23.035367905757766 161.59600143041644) rotate(0 63.579933166503906 12.5)"><text x="0" y="0" font-family="Virgil, Segoe UI Emoji" font-size="20px" fill="#1e1e1e" text-anchor="start" style="white-space: pre;" direction="ltr" dominant-baseline="text-before-edge">new category</text></g><g transform="translate(26.550223720495524 209.98671654901227) rotate(0 60.06993103027344 12.5)"><text x="0" y="0" font-family="Virgil, Segoe UI Emoji" font-size="20px" fill="#1e1e1e" text-anchor="start" style="white-space: pre;" direction="ltr" dominant-baseline="text-before-edge">hiding delete</text></g><g stroke-linecap="round"><g transform="translate(178.57947076292533 75.75965269970129) rotate(0 -66.48823564787324 -20.848006092977357)"><path d="M-1.16 0.22 C-23.48 -7.06, -111.07 -35.67, -132.93 -42.68 M0.44 -0.71 C-22.12 -7.96, -111.66 -35.02, -133.86 -41.65" stroke="#e03131" stroke-width="4" fill="none"></path></g><g transform="translate(178.57947076292533 75.75965269970129) rotate(0 -66.48823564787324 -20.848006092977357)"><path d="M-108.9 -43.07 C-118.07 -42.69, -129.61 -41.1, -133.86 -41.65 M-108.9 -43.07 C-116.96 -41.57, -123.04 -42.85, -133.86 -41.65" stroke="#e03131" stroke-width="4" fill="none"></path></g><g transform="translate(178.57947076292533 75.75965269970129) rotate(0 -66.48823564787324 -20.848006092977357)"><path d="M-113.83 -26.69 C-121.25 -32.53, -130.9 -37.21, -133.86 -41.65 M-113.83 -26.69 C-120.34 -30.02, -124.98 -36.09, -133.86 -41.65" stroke="#e03131" stroke-width="4" fill="none"></path></g></g><mask></mask><g transform="translate(186.9754093440322 74.08014817172261) rotate(0 46.949951171875 12.5)"><text x="0" y="0" font-family="Virgil, Segoe UI Emoji" font-size="20px" fill="#1e1e1e" text-anchor="start" style="white-space: pre;" direction="ltr" dominant-baseline="text-before-edge">&lt; Hover &gt;</text></g></svg>