<svg version="1.1" xmlns="http://www.w3.org/2000/svg" viewBox="0 0 356.25930213563015 206.92047710035968" width="356.25930213563015" height="206.92047710035968">
  <!-- svg-source:excalidraw -->
  
  <defs>
    <style class="style-fonts">
      @font-face {
        font-family: "Virgil";
        src: url("https://excalidraw.com/Virgil.woff2");
      }
      @font-face {
        font-family: "Cascadia";
        src: url("https://excalidraw.com/Cascadia.woff2");
      }
      @font-face {
        font-family: "Assistant";
        src: url("https://excalidraw.com/Assistant-Regular.woff2");
      }
    </style>
    
  </defs>
  <g stroke-linecap="round" transform="translate(233.6824334211617 34.66477352123184) rotate(0 56.16543585431344 81.12785178956392)"><path d="M28.08 0 C46.25 -0.64, 61.65 -2.41, 84.25 0 C104.41 -1.4, 110.92 8.14, 112.33 28.08 C115.28 55.94, 115.28 79.93, 112.33 134.17 C111.87 153.5, 100.91 159.27, 84.25 162.26 C62.99 158.96, 46.97 160.55, 28.08 162.26 C12.76 162.1, -0.14 156.15, 0 134.17 C2.2 96.82, 1.65 66.77, 0 28.08 C1.48 10.01, 8.77 2.68, 28.08 0" stroke="none" stroke-width="0" fill="#eebefa"></path><path d="M28.08 0 C40.14 -0.31, 52.01 -1.1, 84.25 0 M28.08 0 C43.55 -0.25, 57.4 -0.52, 84.25 0 M84.25 0 C104.46 0.56, 112.98 8.26, 112.33 28.08 M84.25 0 C102.35 0.65, 112.96 9.72, 112.33 28.08 M112.33 28.08 C112.92 51.34, 110.67 70.26, 112.33 134.17 M112.33 28.08 C112.73 58.85, 113.14 90.39, 112.33 134.17 M112.33 134.17 C112.64 153.29, 101.46 163.43, 84.25 162.26 M112.33 134.17 C111.58 153.87, 103.49 160.8, 84.25 162.26 M84.25 162.26 C66.15 163.01, 49.54 164.38, 28.08 162.26 M84.25 162.26 C65.84 162.75, 48.88 162.11, 28.08 162.26 M28.08 162.26 C9.86 163.7, -1.35 154.2, 0 134.17 M28.08 162.26 C9.44 164.41, -1.05 150.89, 0 134.17 M0 134.17 C-0.83 110.42, 0.02 85.63, 0 28.08 M0 134.17 C-0.61 103.91, 1.31 71.39, 0 28.08 M0 28.08 C1.8 11, 9.16 -0.48, 28.08 0 M0 28.08 C1.35 8.55, 10.3 1.15, 28.08 0" stroke="#1e1e1e" stroke-width="2" fill="none"></path></g><g transform="translate(231.66704749695828 10.413150940614287) rotate(0 57.29612731933594 10)"><text x="0" y="0" font-family="Virgil, Segoe UI Emoji" font-size="16px" fill="#1e1e1e" text-anchor="start" style="white-space: pre;" direction="ltr" dominant-baseline="text-before-edge">&lt; Right Click &gt;</text></g><g stroke-linecap="round" transform="translate(10.821805699778452 10) rotate(0 91.52544660526291 12.02241035916586)"><path d="M6.01 0 C52.08 1.31, 93.86 1.49, 177.04 0 C179.05 2.7, 186.59 3.52, 183.05 6.01 C182.87 10.62, 181.9 12.71, 183.05 18.03 C184.54 20.97, 177.46 21.96, 177.04 24.04 C140.03 23.29, 96.08 26.7, 6.01 24.04 C3.02 25.33, 1.85 24.92, 0 18.03 C0.75 15.66, -0.49 14.13, 0 6.01 C0.28 3.65, 5.05 0.77, 6.01 0" stroke="none" stroke-width="0" fill="#d0bfff"></path><path d="M6.01 0 C50.27 0.94, 96.43 3.25, 177.04 0 M6.01 0 C54.84 1.06, 102.49 0.23, 177.04 0 M177.04 0 C180.51 0.56, 183.59 2.32, 183.05 6.01 M177.04 0 C178.87 -0.14, 181.09 2.76, 183.05 6.01 M183.05 6.01 C182.91 11.44, 183.99 14.51, 183.05 18.03 M183.05 6.01 C183.14 8.97, 182.6 12.06, 183.05 18.03 M183.05 18.03 C182.4 22.89, 181.5 22.78, 177.04 24.04 M183.05 18.03 C183.51 20.56, 182.4 23.9, 177.04 24.04 M177.04 24.04 C122.52 24.82, 65.49 24.88, 6.01 24.04 M177.04 24.04 C109.71 25.31, 41.2 25.24, 6.01 24.04 M6.01 24.04 C2.07 25.92, -0.92 20.3, 0 18.03 M6.01 24.04 C0.29 25.94, 2.27 22.09, 0 18.03 M0 18.03 C-0.14 13.89, -0.42 9.41, 0 6.01 M0 18.03 C0.43 13.99, -0.17 8.82, 0 6.01 M0 6.01 C1.17 1.3, 2.82 1, 6.01 0 M0 6.01 C-0.5 0.11, 0.27 1.62, 6.01 0" stroke="#1e1e1e" stroke-width="2" fill="none"></path></g><g transform="translate(45.725577710259586 13.878196890051186) rotate(0 37.20008087158203 10)"><text x="0" y="0" font-family="Virgil, Segoe UI Emoji" font-size="16px" fill="#1e1e1e" text-anchor="start" style="white-space: pre;" direction="ltr" dominant-baseline="text-before-edge">Section 0</text></g><g stroke-linecap="round"><g transform="translate(139.41853655786917 19.302687212097226) rotate(179.50308907654795 4.505820657273773 3.330389181463488)"><path d="M0.35 -0.07 C1.88 1.01, 7.65 5.36, 9.14 6.5 M0.1 -0.41 C1.6 0.71, 7.41 5.78, 8.92 6.87" stroke="#1e1e1e" stroke-width="1" fill="none"></path></g></g><mask></mask><g stroke-linecap="round"><g transform="translate(131.1958868109473 25.931719335345406) rotate(179.50308907654795 4.309915411305326 -3.330389181463488)"><path d="M0.12 -0.16 C1.55 -1.24, 7.45 -5.45, 8.88 -6.56 M-0.24 0.52 C1.13 -0.66, 7.27 -5.95, 8.74 -7.13" stroke="#1e1e1e" stroke-width="1" fill="none"></path></g></g><mask></mask><g stroke-linecap="round" transform="translate(10 34.159291815423785) rotate(0 92.63790294610686 60.64881470169803)"><path d="M30.32 0 C78.99 0.57, 123.77 -1.4, 154.95 0 C175.78 -2.06, 182.29 11.6, 185.28 30.32 C181.9 47.78, 183.49 66.49, 185.28 90.97 C185.12 111.05, 178.43 122.31, 154.95 121.3 C110.56 125.43, 73.47 124.57, 30.32 121.3 C10.75 120.71, 2.68 111.47, 0 90.97 C1.11 69.93, -2.62 49.61, 0 30.32 C0.2 9.85, 8.85 2.02, 30.32 0" stroke="none" stroke-width="0" fill="#9775fa"></path><path d="M30.32 0 C72.63 -0.28, 112.72 -1.47, 154.95 0 M30.32 0 C70.27 -0.26, 111.26 0.14, 154.95 0 M154.95 0 C176.66 -1.59, 183.91 10.03, 185.28 30.32 M154.95 0 C176.93 1.97, 184.32 8.65, 185.28 30.32 M185.28 30.32 C185.37 47.01, 186.16 66.06, 185.28 90.97 M185.28 30.32 C185.61 50.45, 186 71.8, 185.28 90.97 M185.28 90.97 C185.7 112.43, 176.97 121.73, 154.95 121.3 M185.28 90.97 C184.4 109.3, 174.36 123.49, 154.95 121.3 M154.95 121.3 C109.81 120.26, 63.07 121.68, 30.32 121.3 M154.95 121.3 C105.13 121.04, 57.78 120.23, 30.32 121.3 M30.32 121.3 C10.3 122.19, -0.67 111.04, 0 90.97 M30.32 121.3 C9.3 120.6, -2.26 112.97, 0 90.97 M0 90.97 C2.07 66.91, -0.04 44.41, 0 30.32 M0 90.97 C-0.46 74.09, -1 59.55, 0 30.32 M0 30.32 C-0.78 11.39, 8.35 0.8, 30.32 0 M0 30.32 C-0.9 9.21, 9.33 -1.27, 30.32 0" stroke="#1e1e1e" stroke-width="2" fill="none"></path></g><g transform="translate(74.40539919110279 39.452886269486044) rotate(0 28.168067932128906 10)"><text x="0" y="0" font-family="Virgil, Segoe UI Emoji" font-size="16px" fill="#1e1e1e" text-anchor="start" style="white-space: pre;" direction="ltr" dominant-baseline="text-before-edge">Heading</text></g><g stroke-linecap="round" transform="translate(25.15560918084202 68.81372564495359) rotate(0 77.3037703461639 29.279821881283624)"><path d="M14.64 0 C58.11 -1.77, 97.39 1.78, 139.97 0 C148.65 -3.58, 152.53 2.59, 154.61 14.64 C154.35 24.16, 157.76 34.97, 154.61 43.92 C155.9 55.53, 152.61 56.02, 139.97 58.56 C94.88 58.9, 51.17 59.77, 14.64 58.56 C6.53 61.61, 0.77 55.71, 0 43.92 C0.45 34.93, -1.01 28.48, 0 14.64 C-3.04 4.17, 4.55 -2.88, 14.64 0" stroke="none" stroke-width="0" fill="#1e1e1e"></path><path d="M14.64 0 C56.85 0.88, 98.24 -1.56, 139.97 0 M14.64 0 C52.22 -1.21, 87.62 -0.45, 139.97 0 M139.97 0 C151.26 1.72, 153.77 3.61, 154.61 14.64 M139.97 0 C149.73 -1.13, 154.97 5.33, 154.61 14.64 M154.61 14.64 C155.63 21.66, 153.52 28.18, 154.61 43.92 M154.61 14.64 C154.99 22.15, 155.68 28.65, 154.61 43.92 M154.61 43.92 C153.84 52.03, 149.03 60.46, 139.97 58.56 M154.61 43.92 C156.31 54.41, 150.3 60.23, 139.97 58.56 M139.97 58.56 C112.72 57.69, 79.98 57.11, 14.64 58.56 M139.97 58.56 C92.12 59.03, 43.74 58.51, 14.64 58.56 M14.64 58.56 C4.17 57.95, -1.96 55.22, 0 43.92 M14.64 58.56 C7.03 56.91, 2.07 55.56, 0 43.92 M0 43.92 C-0.63 36.24, 1.07 26.5, 0 14.64 M0 43.92 C-0.17 38.19, -0.66 31.58, 0 14.64 M0 14.64 C-0.78 4.1, 4.2 -1.11, 14.64 0 M0 14.64 C1.73 7.14, 5.85 1.22, 14.64 0" stroke="#1e1e1e" stroke-width="2" fill="none"></path></g><g transform="translate(35.63216819101717 76.40156068673605) rotate(0 22.989838598528877 7.507116107089132)"><text x="0" y="0" font-family="Virgil, Segoe UI Emoji" font-size="12.011385771342846px" fill="#9c36b5" text-anchor="start" style="white-space: pre;" direction="ltr" dominant-baseline="text-before-edge">function</text></g><g transform="translate(93.00174753306601 75.81012172444753) rotate(0 23.70451293617731 15.014232214178719)"><text x="0" y="0" font-family="Virgil, Segoe UI Emoji" font-size="12.011385771342846px" fill="#fab005" text-anchor="start" style="white-space: pre;" direction="ltr" dominant-baseline="text-before-edge">hello() {</text><text x="0" y="15.014232214178557" font-family="Virgil, Segoe UI Emoji" font-size="12.011385771342846px" fill="#fab005" text-anchor="start" style="white-space: pre;" direction="ltr" dominant-baseline="text-before-edge">    </text></g><g transform="translate(130.2624021572833 92.96185163083283) rotate(0 17.020171530967787 7.507116107089132)"><text x="0" y="0" font-family="Virgil, Segoe UI Emoji" font-size="12.011385771342848px" fill="#2f9e44" text-anchor="start" style="white-space: pre;" direction="ltr" dominant-baseline="text-before-edge">"Hello"</text></g><g transform="translate(166.93161781921162 92.96185163083283) rotate(0 2.0299259823291322 7.507116107089132)"><text x="0" y="0" font-family="Virgil, Segoe UI Emoji" font-size="12.011385771342846px" fill="#fab005" text-anchor="start" style="white-space: pre;" direction="ltr" dominant-baseline="text-before-edge">)</text></g><g transform="translate(38.589363002463415 107.74782568806222) rotate(0 2.978831139920487 7.507116107089132)"><text x="0" y="0" font-family="Virgil, Segoe UI Emoji" font-size="12.011385771342846px" fill="#fab005" text-anchor="start" style="white-space: pre;" direction="ltr" dominant-baseline="text-before-edge">}</text></g><g transform="translate(64.61267734318653 92.96185163083283) rotate(0 32.622222900390625 7.507116107089132)"><text x="0" y="0" font-family="Virgil, Segoe UI Emoji" font-size="12.011385771342846px" fill="#fab005" text-anchor="start" style="white-space: pre;" direction="ltr" dominant-baseline="text-before-edge">console.log(</text></g><g transform="translate(95.00183537384328 124.8703644293455) rotate(0 6.249992370605469 12.5)"><text x="0" y="0" font-family="Virgil, Segoe UI Emoji" font-size="20px" fill="#1e1e1e" text-anchor="start" style="white-space: pre;" direction="ltr" dominant-baseline="text-before-edge">+</text></g><g stroke-linecap="round"><g transform="translate(222.30008448394574 22.387937217055878) rotate(0 -44.06735199036848 13.936752148060805)"><path d="M0 -0.59 C-14.57 4.22, -73.11 23.25, -87.95 28.11 M-1.46 1.71 C-16.13 6.21, -74.6 21.96, -88.8 26.11" stroke="#e03131" stroke-width="2" fill="none"></path></g><g transform="translate(222.30008448394574 22.387937217055878) rotate(0 -44.06735199036848 13.936752148060805)"><path d="M-68.48 11.55 C-74.8 15.62, -78.67 17.56, -88.8 26.11 M-68.48 11.55 C-75.59 16.23, -82.91 21.44, -88.8 26.11" stroke="#e03131" stroke-width="2" fill="none"></path></g><g transform="translate(222.30008448394574 22.387937217055878) rotate(0 -44.06735199036848 13.936752148060805)"><path d="M-63.87 28.02 C-71.28 27.84, -76.34 25.52, -88.8 26.11 M-63.87 28.02 C-72.59 26.81, -81.56 26.11, -88.8 26.11" stroke="#e03131" stroke-width="2" fill="none"></path></g></g><mask></mask><g transform="translate(249.10531309952285 43.93625787066958) rotate(0 42.25609588623047 70)"><text x="0" y="0" font-family="Virgil, Segoe UI Emoji" font-size="16px" fill="#1e1e1e" text-anchor="start" style="white-space: pre;" direction="ltr" dominant-baseline="text-before-edge">Shift Up</text><text x="0" y="20" font-family="Virgil, Segoe UI Emoji" font-size="16px" fill="#1e1e1e" text-anchor="start" style="white-space: pre;" direction="ltr" dominant-baseline="text-before-edge">Shift Down</text><text x="0" y="40" font-family="Virgil, Segoe UI Emoji" font-size="16px" fill="#1e1e1e" text-anchor="start" style="white-space: pre;" direction="ltr" dominant-baseline="text-before-edge">Edit</text><text x="0" y="60" font-family="Virgil, Segoe UI Emoji" font-size="16px" fill="#1e1e1e" text-anchor="start" style="white-space: pre;" direction="ltr" dominant-baseline="text-before-edge">Copy</text><text x="0" y="80" font-family="Virgil, Segoe UI Emoji" font-size="16px" fill="#1e1e1e" text-anchor="start" style="white-space: pre;" direction="ltr" dominant-baseline="text-before-edge">Cut</text><text x="0" y="100" font-family="Virgil, Segoe UI Emoji" font-size="16px" fill="#1e1e1e" text-anchor="start" style="white-space: pre;" direction="ltr" dominant-baseline="text-before-edge">Paste</text><text x="0" y="120" font-family="Virgil, Segoe UI Emoji" font-size="16px" fill="#1e1e1e" text-anchor="start" style="white-space: pre;" direction="ltr" dominant-baseline="text-before-edge"></text></g><g transform="translate(249.0211116246412 166.09144534120696) rotate(0 25.992050170898438 10)"><text x="0" y="0" font-family="Virgil, Segoe UI Emoji" font-size="16px" fill="#e03131" text-anchor="start" style="white-space: pre;" direction="ltr" dominant-baseline="text-before-edge">Delete</text></g></svg>