<svg version="1.1" xmlns="http://www.w3.org/2000/svg" viewBox="0 0 391.00663628006697 270.4703784264966" width="391.00663628006697" height="270.4703784264966">
  <!-- svg-source:excalidraw -->
  
  <defs>
    <style class="style-fonts">
      @font-face {
        font-family: "Virgil";
        src: url("https://excalidraw.com/Virgil.woff2");
      }
      @font-face {
        font-family: "Cascadia";
        src: url("https://excalidraw.com/Cascadia.woff2");
      }
      @font-face {
        font-family: "Assistant";
        src: url("https://excalidraw.com/Assistant-Regular.woff2");
      }
    </style>
    
  </defs>
  <g stroke-linecap="round" transform="translate(10 10) rotate(0 185.50331814003349 26.824215599952367)"><path d="M13.41 0 C127.19 2.2, 243.98 0.56, 357.59 0 C363.49 -1.91, 369.78 6.01, 371.01 13.41 C367.29 18.6, 371.2 25.35, 371.01 40.24 C367.45 51.87, 364.71 52.55, 357.59 53.65 C280.03 49.59, 200.97 51.19, 13.41 53.65 C2.08 56.68, -3.04 50.57, 0 40.24 C-1.11 34.48, -2.88 28.02, 0 13.41 C1.47 1.82, 5.65 -2.14, 13.41 0" stroke="none" stroke-width="0" fill="#f8f9fa"></path><path d="M13.41 0 C109 1.29, 206.3 -1.04, 357.59 0 M13.41 0 C116.25 -0.92, 220.12 -0.67, 357.59 0 M357.59 0 C365.61 0.32, 369.11 4.44, 371.01 13.41 M357.59 0 C364.71 0.74, 369.03 4.89, 371.01 13.41 M371.01 13.41 C370.85 23.1, 372.57 34.77, 371.01 40.24 M371.01 13.41 C371.45 23.51, 370.5 32.02, 371.01 40.24 M371.01 40.24 C372.41 50.3, 365.45 53.12, 357.59 53.65 M371.01 40.24 C371.98 50.35, 365.41 51.61, 357.59 53.65 M357.59 53.65 C279.74 51.84, 200.92 53.52, 13.41 53.65 M357.59 53.65 C250.9 51.67, 145.35 51.03, 13.41 53.65 M13.41 53.65 C6.23 51.68, -0.52 48.27, 0 40.24 M13.41 53.65 C3.76 55.45, -0.06 47.11, 0 40.24 M0 40.24 C0.11 34.68, 1.17 27.46, 0 13.41 M0 40.24 C0.07 34.86, -0.4 28.42, 0 13.41 M0 13.41 C1.51 6.3, 5.43 0.02, 13.41 0 M0 13.41 C2.28 4.31, 5.56 -2.09, 13.41 0" stroke="#1e1e1e" stroke-width="2" fill="none"></path></g><g stroke-linecap="round" transform="translate(13.69541522689451 63.78490812674863) rotate(0 69.95518106720692 19.041055201725158)"><path d="M9.52 0 C39.66 -1.88, 71.91 -2.82, 130.39 0 C135.51 1.54, 139.35 2.08, 139.91 9.52 C139.89 13.79, 136.18 26.94, 139.91 28.56 C138.09 33.81, 134.22 35.23, 130.39 38.08 C102.1 35.13, 66.39 39.09, 9.52 38.08 C0.14 39.47, -1.93 33, 0 28.56 C-2.85 24.89, 1.53 16.8, 0 9.52 C1.18 1.03, 1.56 -1.56, 9.52 0" stroke="none" stroke-width="0" fill="#b2f2bb"></path><path d="M9.52 0 C43.88 -2.9, 79.69 0.18, 130.39 0 M9.52 0 C48.46 0.53, 86.8 0.95, 130.39 0 M130.39 0 C134.84 -0.03, 138.32 3.82, 139.91 9.52 M130.39 0 C134.76 0.42, 141.99 2.34, 139.91 9.52 M139.91 9.52 C141.49 17.1, 140.67 23.18, 139.91 28.56 M139.91 9.52 C139.62 16.61, 140.68 23.56, 139.91 28.56 M139.91 28.56 C138.82 34.38, 137.59 39.1, 130.39 38.08 M139.91 28.56 C138.78 32.87, 135.11 37.08, 130.39 38.08 M130.39 38.08 C103.51 39.7, 73.23 37.56, 9.52 38.08 M130.39 38.08 C106.09 37.4, 80.75 37.25, 9.52 38.08 M9.52 38.08 C2.66 37.18, -0.62 36.48, 0 28.56 M9.52 38.08 C3.11 36.02, -1.59 35.76, 0 28.56 M0 28.56 C1.19 23.99, -1.44 19.48, 0 9.52 M0 28.56 C-0.47 24.32, 0.72 20.39, 0 9.52 M0 9.52 C0.96 3.19, 5.15 -0.14, 9.52 0 M0 9.52 C1.09 1.09, 4.03 0.27, 9.52 0" stroke="#1e1e1e" stroke-width="2" fill="none"></path></g><g stroke-linecap="round" transform="translate(21.054312173005087 16.72463172364587) rotate(0 22.045947013559186 19.596397345385867)"><path d="M22.09 -0.4 C26.66 -0.59, 32.5 1.93, 36.16 4.66 C39.82 7.39, 43.27 11.9, 44.05 15.97 C44.83 20.04, 43.28 25.44, 40.84 29.1 C38.4 32.77, 33.72 36.51, 29.41 37.96 C25.1 39.41, 19.35 39.15, 14.98 37.8 C10.61 36.46, 5.54 33.42, 3.17 29.88 C0.8 26.34, 0 20.68, 0.77 16.56 C1.53 12.44, 4.07 7.88, 7.77 5.16 C11.47 2.44, 20.32 1.01, 22.95 0.26 C25.58 -0.5, 23.57 0.4, 23.57 0.66 M16.43 -0.04 C20.59 -1.21, 26.9 -0.22, 31.24 1.7 C35.58 3.61, 40.51 7.46, 42.47 11.44 C44.44 15.43, 44.49 21.63, 43.03 25.6 C41.57 29.58, 37.55 33.16, 33.7 35.29 C29.84 37.43, 24.59 38.65, 19.89 38.4 C15.19 38.16, 8.87 36.76, 5.5 33.82 C2.13 30.89, -0.01 25.19, -0.32 20.81 C-0.63 16.43, 0.87 10.83, 3.64 7.54 C6.41 4.26, 14.23 2.11, 16.29 1.1 C18.36 0.09, 15.93 1.35, 16.04 1.5" stroke="none" stroke-width="0" fill="#d0bfff"></path><path d="M24.91 0.24 C29.35 0.59, 35.17 3.28, 38.38 6.34 C41.59 9.39, 44 14.38, 44.16 18.55 C44.32 22.72, 42.25 28.05, 39.33 31.35 C36.42 34.65, 31.28 37.37, 26.67 38.36 C22.06 39.35, 15.89 39.15, 11.68 37.3 C7.46 35.44, 3.14 31.23, 1.38 27.22 C-0.38 23.21, -0.48 17.27, 1.1 13.24 C2.69 9.21, 6.73 5.21, 10.89 3.02 C15.04 0.83, 23.41 0.43, 26.02 0.1 C28.64 -0.23, 26.6 0.72, 26.59 1.04 M23.58 -0.12 C28.04 -0.02, 34.62 3.24, 37.97 6.14 C41.31 9.03, 43.38 13.18, 43.64 17.24 C43.91 21.31, 42.29 26.88, 39.56 30.53 C36.83 34.18, 31.77 37.89, 27.26 39.14 C22.75 40.39, 16.57 39.89, 12.49 38.02 C8.42 36.15, 4.76 31.96, 2.79 27.93 C0.83 23.9, -0.36 17.87, 0.69 13.82 C1.75 9.77, 5.13 6.02, 9.13 3.63 C13.14 1.23, 22.13 0.1, 24.71 -0.55 C27.29 -1.2, 24.79 -0.64, 24.61 -0.27" stroke="#1e1e1e" stroke-width="2" fill="none"></path></g><g transform="translate(26.469603823484363 71.15993702278865) rotate(0 49.229949951171875 12.5)"><text x="0" y="0" font-family="Virgil, Segoe UI Emoji" font-size="20px" fill="#1e1e1e" text-anchor="start" style="white-space: pre;" direction="ltr" dominant-baseline="text-before-edge">category0</text></g><g transform="translate(143.336722235519 24.884587414828275) rotate(0 48.289955139160156 12.5)"><text x="0" y="0" font-family="Virgil, Segoe UI Emoji" font-size="20px" fill="#1e1e1e" text-anchor="start" style="white-space: pre;" direction="ltr" dominant-baseline="text-before-edge">WELCOME</text></g><g stroke-linecap="round" transform="translate(16.86064879057409 101.06804534010371) rotate(0 48.317045581759686 10.98114672312704)"><path d="M5.49 0 C38.09 -3.1, 61.78 0.81, 91.14 0 C91.49 -3.56, 99.33 0.01, 96.63 5.49 C95.6 9.77, 94.66 12.79, 96.63 16.47 C95.71 17.74, 97.84 18.93, 91.14 21.96 C60.07 19.77, 33.99 18.01, 5.49 21.96 C2.83 23.44, -2.65 21.31, 0 16.47 C1.87 14.67, 1.42 12.38, 0 5.49 C-3.58 1.35, -0.98 -2.73, 5.49 0" stroke="none" stroke-width="0" fill="#40c057"></path><path d="M5.49 0 C24.28 -0.98, 44.46 -1.96, 91.14 0 M5.49 0 C30.19 -0.09, 57.52 -0.64, 91.14 0 M91.14 0 C96.35 -0.06, 95.85 3.49, 96.63 5.49 M91.14 0 C95.28 0.93, 95.78 3.09, 96.63 5.49 M96.63 5.49 C97.13 10.15, 97.35 12.68, 96.63 16.47 M96.63 5.49 C96.41 8.01, 96.29 11.27, 96.63 16.47 M96.63 16.47 C95.38 21.76, 94.23 23.75, 91.14 21.96 M96.63 16.47 C98.9 20.34, 94.61 19.87, 91.14 21.96 M91.14 21.96 C67.03 24.54, 44.3 22.27, 5.49 21.96 M91.14 21.96 C69.3 21.74, 46.81 23, 5.49 21.96 M5.49 21.96 C0.24 22.17, 0.64 21.41, 0 16.47 M5.49 21.96 C1.38 20.25, -0.84 18.69, 0 16.47 M0 16.47 C0.24 14.03, 0.93 10.46, 0 5.49 M0 16.47 C0.15 12.67, 0.1 9.93, 0 5.49 M0 5.49 C-0.59 -0.15, 2.67 -1.43, 5.49 0 M0 5.49 C-0.62 -0.12, 0.61 -0.78, 5.49 0" stroke="#1e1e1e" stroke-width="2" fill="none"></path></g><g transform="translate(26.369261925413014 103.28799256695129) rotate(0 31.048072814941406 10)"><text x="0" y="0" font-family="Virgil, Segoe UI Emoji" font-size="16px" fill="#1e1e1e" text-anchor="start" style="white-space: pre;" direction="ltr" dominant-baseline="text-before-edge">article0</text></g><g stroke-linecap="round" transform="translate(17.73031696698348 146.87853580420415) rotate(0 48.317045581759686 10.98114672312704)"><path d="M5.49 0 C19.38 -3.71, 42.6 -1.97, 91.14 0 C93.7 -2.52, 93.78 0.21, 96.63 5.49 C95.94 8.2, 98.12 11.88, 96.63 16.47 C98.02 18.2, 92.9 19.89, 91.14 21.96 C69.71 22.09, 43.62 21.8, 5.49 21.96 C-0.31 20.35, -1.56 23.37, 0 16.47 C-2.1 12.45, -1.68 7.46, 0 5.49 C0.51 2.53, -0.06 2.8, 5.49 0" stroke="none" stroke-width="0" fill="#e9ecef"></path><path d="M5.49 0 C27.19 -0.78, 49.6 -0.91, 91.14 0 M5.49 0 C33.53 0.28, 59.64 1.14, 91.14 0 M91.14 0 C95.22 0.81, 95.89 2.93, 96.63 5.49 M91.14 0 C96.06 2.22, 95.69 2.64, 96.63 5.49 M96.63 5.49 C96.41 10.02, 97.26 13.08, 96.63 16.47 M96.63 5.49 C96.21 8.26, 96.4 10.62, 96.63 16.47 M96.63 16.47 C98.6 20.32, 94.63 20.14, 91.14 21.96 M96.63 16.47 C95.76 20.43, 97.01 20.04, 91.14 21.96 M91.14 21.96 C57.02 21.12, 26.27 21.69, 5.49 21.96 M91.14 21.96 C72.34 22.38, 55.45 22.91, 5.49 21.96 M5.49 21.96 C1.44 20.47, -0.73 18.88, 0 16.47 M5.49 21.96 C1.78 23.52, -1.15 20.79, 0 16.47 M0 16.47 C-0.09 13.44, -0.18 8.75, 0 5.49 M0 16.47 C-0.2 13.63, 0.19 11.48, 0 5.49 M0 5.49 C-0.54 0.14, 0.77 -0.68, 5.49 0 M0 5.49 C0.98 1.47, 1.13 2.07, 5.49 0" stroke="#1e1e1e" stroke-width="2" fill="none"></path></g><g transform="translate(22.12432216734561 150.89899778125618) rotate(0 42.52809143066406 10)"><text x="0" y="0" font-family="Virgil, Segoe UI Emoji" font-size="16px" fill="#1e1e1e" text-anchor="start" style="white-space: pre;" direction="ltr" dominant-baseline="text-before-edge">new article</text></g><g stroke-linecap="round" transform="translate(18.034313916172607 122.65011837943166) rotate(0 48.317045581759686 10.98114672312704)"><path d="M5.49 0 C21.61 -1.74, 37.08 -0.84, 91.14 0 C97.2 -3.35, 99.15 0.9, 96.63 5.49 C97.56 7, 95.75 9.48, 96.63 16.47 C95.26 20.99, 91.67 22.96, 91.14 21.96 C59.8 20.85, 31.18 25.7, 5.49 21.96 C3.35 24.38, 2.17 16.56, 0 16.47 C0.43 13.71, -0.88 11.71, 0 5.49 C0.44 4.66, 0.2 -0.27, 5.49 0" stroke="none" stroke-width="0" fill="#40c057"></path><path d="M5.49 0 C24.74 2.54, 42.52 2.28, 91.14 0 M5.49 0 C31.14 -0.31, 56 -0.17, 91.14 0 M91.14 0 C95.89 1.93, 95.82 2.54, 96.63 5.49 M91.14 0 C96.42 1.29, 95.38 1.23, 96.63 5.49 M96.63 5.49 C95.72 8.47, 96.21 12.32, 96.63 16.47 M96.63 5.49 C97.14 9.73, 96.56 13.37, 96.63 16.47 M96.63 16.47 C95.87 20.39, 96.73 20.29, 91.14 21.96 M96.63 16.47 C98.66 17.87, 94.21 20.92, 91.14 21.96 M91.14 21.96 C66.31 20.56, 45.82 20.35, 5.49 21.96 M91.14 21.96 C64.36 21.76, 37.6 21.88, 5.49 21.96 M5.49 21.96 C1.78 23.32, -1 20.71, 0 16.47 M5.49 21.96 C3.56 24.06, 1.11 20.16, 0 16.47 M0 16.47 C-0.99 12.5, 0.14 7.39, 0 5.49 M0 16.47 C-0.19 13.8, -0.34 11.88, 0 5.49 M0 5.49 C0.86 1.52, 1.22 1.8, 5.49 0 M0 5.49 C-2.28 0.27, 2.05 -2.12, 5.49 0" stroke="#1e1e1e" stroke-width="2" fill="none"></path></g><g transform="translate(28.13898554228598 124.87006560627924) rotate(0 27.712066650390625 10)"><text x="0" y="0" font-family="Virgil, Segoe UI Emoji" font-size="16px" fill="#1e1e1e" text-anchor="start" style="white-space: pre;" direction="ltr" dominant-baseline="text-before-edge">article1</text></g><g stroke-linecap="round" transform="translate(12.662565870370827 186.91118233717862) rotate(0 69.95518106720692 19.041055201725158)"><path d="M9.52 0 C39.71 -2.37, 67.63 0.05, 130.39 0 C134.34 3.03, 136.87 4.56, 139.91 9.52 C138.42 15.03, 136.74 19.86, 139.91 28.56 C141.38 32.25, 137.92 35.94, 130.39 38.08 C101.06 42.45, 70.86 36.46, 9.52 38.08 C2.69 35.27, -2.73 35.42, 0 28.56 C0.6 25.18, -1.37 16.14, 0 9.52 C0.36 6.58, 4.51 -0.63, 9.52 0" stroke="none" stroke-width="0" fill="#b2f2bb"></path><path d="M9.52 0 C56.64 -1.71, 105.54 -0.51, 130.39 0 M9.52 0 C51.2 0.3, 91.39 -0.31, 130.39 0 M130.39 0 C138.14 1.12, 138.82 2.65, 139.91 9.52 M130.39 0 C137.71 1.17, 138.78 1.14, 139.91 9.52 M139.91 9.52 C141.38 13.34, 141.53 20.13, 139.91 28.56 M139.91 9.52 C139.53 15.53, 140.81 20.5, 139.91 28.56 M139.91 28.56 C141.67 32.94, 136.22 37.18, 130.39 38.08 M139.91 28.56 C139.2 36.71, 136.68 36.02, 130.39 38.08 M130.39 38.08 C102.71 37.76, 75.88 36.73, 9.52 38.08 M130.39 38.08 C103.1 38, 75.36 37.61, 9.52 38.08 M9.52 38.08 C4.68 39.91, 0.96 34.93, 0 28.56 M9.52 38.08 C5.45 37.93, 1.09 32.82, 0 28.56 M0 28.56 C-1.91 22.94, -1.39 15.2, 0 9.52 M0 28.56 C0.51 24.31, -0.19 21.22, 0 9.52 M0 9.52 C-1.98 1.82, 3.36 -1.84, 9.52 0 M0 9.52 C-2.28 4.9, 2.01 -0.7, 9.52 0" stroke="#1e1e1e" stroke-width="2" fill="none"></path></g><g transform="translate(25.43675446696068 194.28621123321864) rotate(0 45.05995178222656 12.5)"><text x="0" y="0" font-family="Virgil, Segoe UI Emoji" font-size="20px" fill="#1e1e1e" text-anchor="start" style="white-space: pre;" direction="ltr" dominant-baseline="text-before-edge">category1</text></g><g stroke-linecap="round"><g transform="translate(204.99383256625023 81.9188113249138) rotate(0 -33.21809658596588 1.0531443783488612)"><path d="M-0.87 -1.19 C-12.03 -1.12, -55.66 0.85, -66.77 1.55 M0.87 0.8 C-10.49 1.53, -56.87 2.74, -67.9 2.79" stroke="#e03131" stroke-width="2" fill="none"></path></g><g transform="translate(204.99383256625023 81.9188113249138) rotate(0 -33.21809658596588 1.0531443783488612)"><path d="M-44.56 -6.18 C-53.81 -4.08, -60.11 -2.58, -67.9 2.79 M-44.56 -6.18 C-53.03 -3.24, -62.22 -0.45, -67.9 2.79" stroke="#e03131" stroke-width="2" fill="none"></path></g><g transform="translate(204.99383256625023 81.9188113249138) rotate(0 -33.21809658596588 1.0531443783488612)"><path d="M-44.25 10.92 C-53.76 7.63, -60.16 3.74, -67.9 2.79 M-44.25 10.92 C-52.92 7.46, -62.22 3.86, -67.9 2.79" stroke="#e03131" stroke-width="2" fill="none"></path></g></g><mask></mask><g stroke-linecap="round" transform="translate(223.62970970042613 98.21467484736877) rotate(0 56.165435854313436 81.12785178956392)"><path d="M28.08 0 C40.4 -1.76, 58.1 -2.66, 84.25 0 C101.54 3, 114.97 7.34, 112.33 28.08 C110.34 63.81, 114.3 105.67, 112.33 134.17 C109.88 151.65, 104.86 165.41, 84.25 162.26 C65.36 160.97, 49.09 160.61, 28.08 162.26 C11.53 165.67, -0.84 149.36, 0 134.17 C1.62 106.35, 2.6 76.51, 0 28.08 C-3.27 6.28, 8.95 -3.23, 28.08 0" stroke="none" stroke-width="0" fill="#eebefa"></path><path d="M28.08 0 C40.9 -2.12, 56.23 -1.29, 84.25 0 M28.08 0 C49.66 -0.52, 69.31 0.11, 84.25 0 M84.25 0 C103.69 0.73, 114.26 9.25, 112.33 28.08 M84.25 0 C103.92 -1.15, 110.98 9.51, 112.33 28.08 M112.33 28.08 C111.05 57.46, 109.43 83.92, 112.33 134.17 M112.33 28.08 C112.5 66.06, 112.49 102.69, 112.33 134.17 M112.33 134.17 C114.31 152.51, 103.61 162.09, 84.25 162.26 M112.33 134.17 C110.9 152.06, 102.18 161.54, 84.25 162.26 M84.25 162.26 C66.55 163.06, 45.36 162.41, 28.08 162.26 M84.25 162.26 C64 162.6, 45.4 162.36, 28.08 162.26 M28.08 162.26 C9.79 161.78, 0.55 151.32, 0 134.17 M28.08 162.26 C8.42 162.45, 0.09 154.54, 0 134.17 M0 134.17 C0.09 111, -0.58 89.14, 0 28.08 M0 134.17 C-0.48 99.26, 0.05 66.84, 0 28.08 M0 28.08 C0.43 9.54, 10.75 -0.76, 28.08 0 M0 28.08 C-2.01 10.63, 10.17 -0.62, 28.08 0" stroke="#1e1e1e" stroke-width="2" fill="none"></path></g><g transform="translate(221.6143237762227 73.96305226675122) rotate(0 57.29612731933594 10)"><text x="0" y="0" font-family="Virgil, Segoe UI Emoji" font-size="16px" fill="#1e1e1e" text-anchor="start" style="white-space: pre;" direction="ltr" dominant-baseline="text-before-edge">&lt; Right Click &gt;</text></g><g transform="translate(239.05258937878727 107.48615919680651) rotate(0 42.25609588623047 70)"><text x="0" y="0" font-family="Virgil, Segoe UI Emoji" font-size="16px" fill="#1e1e1e" text-anchor="start" style="white-space: pre;" direction="ltr" dominant-baseline="text-before-edge">Shift Up</text><text x="0" y="20" font-family="Virgil, Segoe UI Emoji" font-size="16px" fill="#1e1e1e" text-anchor="start" style="white-space: pre;" direction="ltr" dominant-baseline="text-before-edge">Shift Down</text><text x="0" y="40" font-family="Virgil, Segoe UI Emoji" font-size="16px" fill="#1e1e1e" text-anchor="start" style="white-space: pre;" direction="ltr" dominant-baseline="text-before-edge">Edit</text><text x="0" y="60" font-family="Virgil, Segoe UI Emoji" font-size="16px" fill="#1e1e1e" text-anchor="start" style="white-space: pre;" direction="ltr" dominant-baseline="text-before-edge">Copy</text><text x="0" y="80" font-family="Virgil, Segoe UI Emoji" font-size="16px" fill="#1e1e1e" text-anchor="start" style="white-space: pre;" direction="ltr" dominant-baseline="text-before-edge">Cut</text><text x="0" y="100" font-family="Virgil, Segoe UI Emoji" font-size="16px" fill="#1e1e1e" text-anchor="start" style="white-space: pre;" direction="ltr" dominant-baseline="text-before-edge">Paste</text><text x="0" y="120" font-family="Virgil, Segoe UI Emoji" font-size="16px" fill="#1e1e1e" text-anchor="start" style="white-space: pre;" direction="ltr" dominant-baseline="text-before-edge"></text></g><g transform="translate(238.96838790390564 229.641346667343) rotate(0 25.992050170898438 10)"><text x="0" y="0" font-family="Virgil, Segoe UI Emoji" font-size="16px" fill="#e03131" text-anchor="start" style="white-space: pre;" direction="ltr" dominant-baseline="text-before-edge">Delete</text></g></svg>