<svg version="1.1" xmlns="http://www.w3.org/2000/svg" viewBox="0 0 205.27580589221384 165.45692121881984" width="205.27580589221384" height="165.45692121881984">
  <!-- svg-source:excalidraw -->
  
  <defs>
    <style class="style-fonts">
      @font-face {
        font-family: "Virgil";
        src: url("https://excalidraw.com/Virgil.woff2");
      }
      @font-face {
        font-family: "Cascadia";
        src: url("https://excalidraw.com/Cascadia.woff2");
      }
      @font-face {
        font-family: "Assistant";
        src: url("https://excalidraw.com/Assistant-Regular.woff2");
      }
    </style>
    
  </defs>
  <g stroke-linecap="round" transform="translate(10.821805699778452 10) rotate(0 91.52544660526291 12.02241035916586)"><path d="M6.01 0 C67.77 -0.25, 135.62 -2.12, 177.04 0 C181.15 -3.08, 185.32 4.13, 183.05 6.01 C184.94 9.98, 184.9 12.99, 183.05 18.03 C180.18 20.03, 180.22 25.84, 177.04 24.04 C126.59 26.05, 82.63 22.53, 6.01 24.04 C3.63 24.19, 2.06 18.48, 0 18.03 C-1.6 15.09, -0.41 11.79, 0 6.01 C-1.85 0.59, -1.11 -2.11, 6.01 0" stroke="none" stroke-width="0" fill="#d0bfff"></path><path d="M6.01 0 C53.62 -0.59, 97.91 -0.64, 177.04 0 M6.01 0 C64.41 0.68, 123.76 1.25, 177.04 0 M177.04 0 C181.71 1.76, 182.55 3.87, 183.05 6.01 M177.04 0 C179.67 -2.03, 185.11 3.59, 183.05 6.01 M183.05 6.01 C183.47 9.07, 182.68 14.72, 183.05 18.03 M183.05 6.01 C183.36 9.64, 183.39 13.77, 183.05 18.03 M183.05 18.03 C184.92 22.42, 181.16 24.95, 177.04 24.04 M183.05 18.03 C181.46 20.15, 183.17 26.27, 177.04 24.04 M177.04 24.04 C135.63 23.63, 95.88 24.67, 6.01 24.04 M177.04 24.04 C135.57 25.32, 93.02 23.85, 6.01 24.04 M6.01 24.04 C2.92 24.39, 1.52 20.49, 0 18.03 M6.01 24.04 C-0.28 25.15, 1.5 23.87, 0 18.03 M0 18.03 C-0.64 13.91, 0.75 9.52, 0 6.01 M0 18.03 C0.62 15.19, -0.35 11.21, 0 6.01 M0 6.01 C1.26 2.47, 2.7 -2, 6.01 0 M0 6.01 C-1.67 2.2, 1.27 1.17, 6.01 0" stroke="#1e1e1e" stroke-width="2" fill="none"></path></g><g transform="translate(45.725577710259586 13.878196890051186) rotate(0 37.20008087158203 10)"><text x="0" y="0" font-family="Virgil, Segoe UI Emoji" font-size="16px" fill="#1e1e1e" text-anchor="start" style="white-space: pre;" direction="ltr" dominant-baseline="text-before-edge">Section 0</text></g><g stroke-linecap="round"><g transform="translate(139.41853655786917 19.302687212097226) rotate(179.50308907654795 4.505820657273773 3.330389181463488)"><path d="M0.06 0.16 C1.5 1.25, 7.26 5.35, 8.72 6.4 M-0.34 -0.07 C1.2 1.08, 7.72 5.58, 9.37 6.72" stroke="#1e1e1e" stroke-width="1" fill="none"></path></g></g><mask></mask><g stroke-linecap="round"><g transform="translate(131.1958868109473 25.931719335345406) rotate(179.50308907654795 4.309915411305326 -3.330389181463488)"><path d="M-0.29 -0.26 C1.1 -1.43, 6.93 -5.8, 8.4 -6.87 M0.21 0.37 C1.71 -0.77, 7.75 -5.41, 9.09 -6.52" stroke="#1e1e1e" stroke-width="1" fill="none"></path></g></g><mask></mask><g stroke-linecap="round" transform="translate(10 34.159291815423785) rotate(0 92.63790294610692 60.64881470169803)"><path d="M30.32 0 C59.1 1.8, 84.77 1.5, 154.95 0 C174.63 2.77, 182.61 7.24, 185.28 30.32 C184.33 48.13, 183.67 57.47, 185.28 90.97 C188.44 112.74, 174.82 122.92, 154.95 121.3 C113.74 116.33, 80.98 116.15, 30.32 121.3 C9.37 120.34, -2.06 109.34, 0 90.97 C3.83 78.58, 2.28 61.14, 0 30.32 C3.06 12.56, 12.62 -1.37, 30.32 0" stroke="none" stroke-width="0" fill="#9775fa"></path><path d="M30.32 0 C56.35 0.25, 84.69 1.43, 154.95 0 M30.32 0 C78.11 -2.04, 127.99 -0.47, 154.95 0 M154.95 0 C175.84 0.67, 184.7 10.74, 185.28 30.32 M154.95 0 C173.35 -0.78, 186.57 10.76, 185.28 30.32 M185.28 30.32 C184.31 46.33, 184.94 61.48, 185.28 90.97 M185.28 30.32 C184.62 48.85, 186.23 70, 185.28 90.97 M185.28 90.97 C184.14 112.35, 175.17 121.45, 154.95 121.3 M185.28 90.97 C184.8 113.45, 175.89 120.01, 154.95 121.3 M154.95 121.3 C109.74 120.37, 60.33 122.51, 30.32 121.3 M154.95 121.3 C114.42 120.81, 76.52 121.13, 30.32 121.3 M30.32 121.3 C10.57 123.1, 1.41 110.31, 0 90.97 M30.32 121.3 C9.66 122.93, -1.42 110.35, 0 90.97 M0 90.97 C1.02 73.1, -1.69 59.03, 0 30.32 M0 90.97 C-0.94 71.45, -0.53 52.26, 0 30.32 M0 30.32 C1.4 9.88, 11.46 -0.84, 30.32 0 M0 30.32 C1.17 12.08, 10.08 0.06, 30.32 0" stroke="#1e1e1e" stroke-width="2" fill="none"></path></g><g transform="translate(74.40539919110279 39.452886269486044) rotate(0 28.168067932128906 10)"><text x="0" y="0" font-family="Virgil, Segoe UI Emoji" font-size="16px" fill="#1e1e1e" text-anchor="start" style="white-space: pre;" direction="ltr" dominant-baseline="text-before-edge">Heading</text></g><g stroke-linecap="round" transform="translate(25.15560918084202 68.81372564495359) rotate(0 77.3037703461639 29.279821881283624)"><path d="M14.64 0 C62.57 1, 108.9 -4.64, 139.97 0 C147.72 -0.82, 156.4 4.18, 154.61 14.64 C157.58 27.41, 154.06 38.7, 154.61 43.92 C154.76 55.74, 146.17 55.25, 139.97 58.56 C111.22 55.77, 81.87 54.88, 14.64 58.56 C3.47 55.45, -2.11 56.57, 0 43.92 C2.86 34.81, 2.31 19.41, 0 14.64 C-2.96 1.56, 7.39 -1.3, 14.64 0" stroke="none" stroke-width="0" fill="#1e1e1e"></path><path d="M14.64 0 C50.79 -0.92, 85.27 -1.61, 139.97 0 M14.64 0 C41.5 -0.53, 67.41 -0.55, 139.97 0 M139.97 0 C148.15 -0.68, 155.74 5.44, 154.61 14.64 M139.97 0 C148.38 0.36, 156.06 3.66, 154.61 14.64 M154.61 14.64 C154.93 25.52, 155.45 34.8, 154.61 43.92 M154.61 14.64 C154.31 21.6, 154.88 27.47, 154.61 43.92 M154.61 43.92 C154.2 55.64, 150.36 57.44, 139.97 58.56 M154.61 43.92 C156.29 54.53, 150.27 60.02, 139.97 58.56 M139.97 58.56 C110.34 60.66, 78.48 57.15, 14.64 58.56 M139.97 58.56 C96.6 60.45, 53.48 59.11, 14.64 58.56 M14.64 58.56 C4.49 59.98, -1.24 52.95, 0 43.92 M14.64 58.56 C4.28 58.79, 2.26 54.92, 0 43.92 M0 43.92 C0.71 37.69, -1.76 28.62, 0 14.64 M0 43.92 C0.79 34.78, 0.77 25.44, 0 14.64 M0 14.64 C1.02 6.59, 4.86 0.05, 14.64 0 M0 14.64 C-1.97 6.33, 6.24 1.31, 14.64 0" stroke="#1e1e1e" stroke-width="2" fill="none"></path></g><g transform="translate(35.63216819101717 76.40156068673605) rotate(0 22.989838598528877 7.507116107089132)"><text x="0" y="0" font-family="Virgil, Segoe UI Emoji" font-size="12.011385771342846px" fill="#9c36b5" text-anchor="start" style="white-space: pre;" direction="ltr" dominant-baseline="text-before-edge">function</text></g><g transform="translate(93.00174753306601 75.81012172444753) rotate(0 23.704512936177366 15.014232214178719)"><text x="0" y="0" font-family="Virgil, Segoe UI Emoji" font-size="12.011385771342846px" fill="#fab005" text-anchor="start" style="white-space: pre;" direction="ltr" dominant-baseline="text-before-edge">hello() {</text><text x="0" y="15.014232214178557" font-family="Virgil, Segoe UI Emoji" font-size="12.011385771342846px" fill="#fab005" text-anchor="start" style="white-space: pre;" direction="ltr" dominant-baseline="text-before-edge">    </text></g><g transform="translate(130.2624021572833 92.96185163083283) rotate(0 17.020171530967787 7.507116107089132)"><text x="0" y="0" font-family="Virgil, Segoe UI Emoji" font-size="12.011385771342848px" fill="#2f9e44" text-anchor="start" style="white-space: pre;" direction="ltr" dominant-baseline="text-before-edge">"Hello"</text></g><g transform="translate(166.93161781921162 92.96185163083283) rotate(0 2.0299259823291322 7.507116107089132)"><text x="0" y="0" font-family="Virgil, Segoe UI Emoji" font-size="12.011385771342846px" fill="#fab005" text-anchor="start" style="white-space: pre;" direction="ltr" dominant-baseline="text-before-edge">)</text></g><g transform="translate(38.589363002463415 107.74782568806222) rotate(0 2.978831139920487 7.507116107089132)"><text x="0" y="0" font-family="Virgil, Segoe UI Emoji" font-size="12.011385771342846px" fill="#fab005" text-anchor="start" style="white-space: pre;" direction="ltr" dominant-baseline="text-before-edge">}</text></g><g transform="translate(64.61267734318653 92.96185163083283) rotate(0 32.622222900390625 7.507116107089132)"><text x="0" y="0" font-family="Virgil, Segoe UI Emoji" font-size="12.011385771342846px" fill="#fab005" text-anchor="start" style="white-space: pre;" direction="ltr" dominant-baseline="text-before-edge">console.log(</text></g><g transform="translate(95.00183537384328 124.8703644293455) rotate(0 6.249992370605469 12.5)"><text x="0" y="0" font-family="Virgil, Segoe UI Emoji" font-size="20px" fill="#1e1e1e" text-anchor="start" style="white-space: pre;" direction="ltr" dominant-baseline="text-before-edge">+</text></g></svg>