<svg version="1.1" xmlns="http://www.w3.org/2000/svg" viewBox="0 0 205.27580589221378 271.0435062923234" width="205.27580589221378" height="271.0435062923234">
  <!-- svg-source:excalidraw -->
  
  <defs>
    <style class="style-fonts">
      @font-face {
        font-family: "Virgil";
        src: url("https://excalidraw.com/Virgil.woff2");
      }
      @font-face {
        font-family: "Cascadia";
        src: url("https://excalidraw.com/Cascadia.woff2");
      }
      @font-face {
        font-family: "Assistant";
        src: url("https://excalidraw.com/Assistant-Regular.woff2");
      }
    </style>
    
  </defs>
  <g stroke-linecap="round" transform="translate(10.821805699778452 10) rotate(0 91.52544660526291 12.02241035916586)"><path d="M6.01 0 C53.29 -4.25, 99.22 -3.91, 177.04 0 C182.23 2.68, 180.19 -0.45, 183.05 6.01 C182.31 8.2, 183.22 12.06, 183.05 18.03 C183.61 22.75, 178.33 26.17, 177.04 24.04 C129.02 25.46, 83.23 26.85, 6.01 24.04 C1.77 24.81, 2.23 25.28, 0 18.03 C-0.68 16.23, 1.68 10.99, 0 6.01 C0.9 4.61, -0.43 2.35, 6.01 0" stroke="none" stroke-width="0" fill="#d0bfff"></path><path d="M6.01 0 C72.94 -1.99, 138.57 -1.05, 177.04 0 M6.01 0 C67.01 0.46, 129.24 1.27, 177.04 0 M177.04 0 C181.13 -0.94, 184.11 1.02, 183.05 6.01 M177.04 0 C178.87 -1.74, 183.24 3.26, 183.05 6.01 M183.05 6.01 C182.84 10.08, 184.29 14.07, 183.05 18.03 M183.05 6.01 C182.85 9.67, 182.82 13.85, 183.05 18.03 M183.05 18.03 C181.43 20.71, 180.02 25.02, 177.04 24.04 M183.05 18.03 C184.04 20.38, 182.9 25.11, 177.04 24.04 M177.04 24.04 C134 21.75, 91.86 24.85, 6.01 24.04 M177.04 24.04 C126.93 25.59, 75.38 26.24, 6.01 24.04 M6.01 24.04 C1.85 22.47, -0.01 22.22, 0 18.03 M6.01 24.04 C2.88 23.68, 0.24 23.81, 0 18.03 M0 18.03 C1.04 12.19, 1.23 7.61, 0 6.01 M0 18.03 C-0.41 14.03, -0.06 10.61, 0 6.01 M0 6.01 C1.96 1.63, 2.7 -0.91, 6.01 0 M0 6.01 C1.72 2.65, 2.75 -1.27, 6.01 0" stroke="#1e1e1e" stroke-width="2" fill="none"></path></g><g transform="translate(45.72557771026004 13.878196890054824) rotate(0 37.20008087158203 10)"><text x="0" y="0" font-family="Virgil, Segoe UI Emoji" font-size="16px" fill="#1e1e1e" text-anchor="start" style="white-space: pre;" direction="ltr" dominant-baseline="text-before-edge">Section 0</text></g><g stroke-linecap="round"><g transform="translate(139.41853655786963 19.302687212097226) rotate(179.50308907654795 4.505820657273773 3.330389181463488)"><path d="M0.04 0.22 C1.61 1.36, 7.88 5.46, 9.32 6.52 M-0.37 0.03 C1.19 1.24, 7.58 5.75, 9.2 6.9" stroke="#1e1e1e" stroke-width="1" fill="none"></path></g></g><mask></mask><g stroke-linecap="round"><g transform="translate(131.19588681094774 25.931719335345406) rotate(179.50308907654795 4.309915411305326 -3.330389181463488)"><path d="M0.31 -0.14 C1.68 -1.3, 6.93 -5.68, 8.28 -6.73 M0.04 -0.51 C1.51 -1.64, 7.39 -5.23, 8.9 -6.32" stroke="#1e1e1e" stroke-width="1" fill="none"></path></g></g><mask></mask><g stroke-linecap="round" transform="translate(10 34.159291815423785) rotate(0 92.63790294610689 42.13462707554709)"><path d="M21.07 0 C74.52 4.52, 131.36 0.25, 164.21 0 C175.97 0, 183.5 7.58, 185.28 21.07 C183.53 36.06, 185.51 45.73, 185.28 63.2 C186 74.93, 180.37 84.04, 164.21 84.27 C118.99 85.21, 69.26 85.32, 21.07 84.27 C10.45 86.93, 1.14 78.15, 0 63.2 C0.63 50.89, -1.13 28.68, 0 21.07 C-2.68 9.99, 10.57 0.07, 21.07 0" stroke="none" stroke-width="0" fill="#9775fa"></path><path d="M21.07 0 C75.96 -0.03, 132.86 1.46, 164.21 0 M21.07 0 C56.35 -0.06, 93.61 1.25, 164.21 0 M164.21 0 C179.11 1.39, 186.08 6.54, 185.28 21.07 M164.21 0 C178.14 2.22, 184.92 7.07, 185.28 21.07 M185.28 21.07 C185.13 32.22, 186.97 43.18, 185.28 63.2 M185.28 21.07 C185.49 30.19, 185.86 41.22, 185.28 63.2 M185.28 63.2 C184.22 77.33, 177.23 83.47, 164.21 84.27 M185.28 63.2 C183.64 76.44, 180.19 84.19, 164.21 84.27 M164.21 84.27 C109.88 84.68, 57 84.98, 21.07 84.27 M164.21 84.27 C132.95 84.23, 101.03 85.16, 21.07 84.27 M21.07 84.27 C8.96 82.64, 1.39 78.81, 0 63.2 M21.07 84.27 C4.97 86.44, -1.69 77.51, 0 63.2 M0 63.2 C-0.9 51.74, 0.16 42.94, 0 21.07 M0 63.2 C0.6 51.64, 0.18 38.96, 0 21.07 M0 21.07 C-0.54 7.59, 7.57 0.31, 21.07 0 M0 21.07 C-2.18 6.88, 5.06 0.76, 21.07 0" stroke="#1e1e1e" stroke-width="2" fill="none"></path></g><g transform="translate(74.40539919110279 39.452886269486044) rotate(0 28.168067932128906 10)"><text x="0" y="0" font-family="Virgil, Segoe UI Emoji" font-size="16px" fill="#1e1e1e" text-anchor="start" style="white-space: pre;" direction="ltr" dominant-baseline="text-before-edge">Heading</text></g><g stroke-linecap="round" transform="translate(35.29966322940811 80.73288680057158) rotate(0 67.19160374616268 13.790416489387098)"><path d="M6.9 0 C50.04 0.91, 95.98 1.47, 127.49 0 C132.79 -2.72, 136.5 1.13, 134.38 6.9 C134.94 10.02, 135.9 16.18, 134.38 20.69 C135.15 27.51, 135.32 28.35, 127.49 27.58 C99.35 29.48, 65.5 27.72, 6.9 27.58 C4.91 25.15, 2.35 25.4, 0 20.69 C-1.73 17.3, 2.56 9.88, 0 6.9 C0.34 3.91, 1.09 -0.27, 6.9 0" stroke="none" stroke-width="0" fill="#e9ecef"></path><path d="M6.9 0 C33.64 1.01, 61.28 -1.94, 127.49 0 M6.9 0 C34.37 0.03, 61.39 -0.9, 127.49 0 M127.49 0 C131.99 1.93, 134.08 2.34, 134.38 6.9 M127.49 0 C131.66 -1.21, 133.71 2.39, 134.38 6.9 M134.38 6.9 C133.6 9.84, 135.19 14.79, 134.38 20.69 M134.38 6.9 C134.13 10.06, 134.14 12.9, 134.38 20.69 M134.38 20.69 C132.96 24.58, 133.77 27.51, 127.49 27.58 M134.38 20.69 C136.19 27.45, 133.47 27.42, 127.49 27.58 M127.49 27.58 C92.46 27.48, 60.77 28.25, 6.9 27.58 M127.49 27.58 C94.2 27.69, 59.68 29.29, 6.9 27.58 M6.9 27.58 C0.51 29.47, -1.47 25.51, 0 20.69 M6.9 27.58 C1.46 27.89, -1.74 24.31, 0 20.69 M0 20.69 C-0.28 17.27, -0.64 13.93, 0 6.9 M0 20.69 C-0.23 16.36, 0.14 11.75, 0 6.9 M0 6.9 C-1.9 2.18, 0.59 0.66, 6.9 0 M0 6.9 C1.71 0.47, 0.73 -0.09, 6.9 0" stroke="#1e1e1e" stroke-width="2" fill="none"></path></g><g transform="translate(40.53030312914268 85.83372260667966) rotate(0 63.7601318359375 10)"><text x="0" y="0" font-family="Virgil, Segoe UI Emoji" font-size="16px" fill="#1e1e1e" text-anchor="start" style="white-space: pre;" direction="ltr" dominant-baseline="text-before-edge">Select Element: </text></g><g stroke-linecap="round" transform="translate(36.74875758212556 109.23470427717803) rotate(0 66.49829005977972 75.90440100757269)"><path d="M-1.47 0.23 L132.27 0.27 L131.49 150.97 L-0.35 152.03" stroke="none" stroke-width="0" fill="#e9ecef"></path><path d="M0 0 C45.41 1.43, 94.95 2.12, 133 0 M0 0 C49.06 1.29, 98.07 0.34, 133 0 M133 0 C132.27 42.04, 134.11 83.88, 133 151.81 M133 0 C132.65 34.75, 133.02 71.41, 133 151.81 M133 151.81 C99.35 149.71, 66.6 152.81, 0 151.81 M133 151.81 C94.16 152.99, 53.9 153.65, 0 151.81 M0 151.81 C1.37 108.17, 0.88 63.23, 0 0 M0 151.81 C-0.77 95.4, -2.36 38.38, 0 0" stroke="#1e1e1e" stroke-width="2" fill="none"></path></g><g stroke-linecap="round" transform="translate(38.746933039506416 152.7073097282264) rotate(0 65.48991891868684 10.462886454464297)"><path d="M-0.73 0.27 L129.47 -0.84 L130.63 21.14 L1.96 20.55" stroke="none" stroke-width="0" fill="#d0bfff"></path><path d="M0 0 C27.97 0.75, 55.15 0.69, 130.98 0 M0 0 C35.98 -1.24, 72.08 -1.79, 130.98 0 M130.98 0 C132.9 4.05, 129.66 10.31, 130.98 20.93 M130.98 0 C131.87 7.76, 130.54 14.64, 130.98 20.93 M130.98 20.93 C97.71 21.68, 65.77 21.57, 0 20.93 M130.98 20.93 C79.13 21.42, 27.65 20.05, 0 20.93 M0 20.93 C-0.34 14.87, 1.52 10.33, 0 0 M0 20.93 C-1.04 17.29, -0.88 11.89, 0 0" stroke="#1e1e1e" stroke-width="2" fill="none"></path></g><g transform="translate(51.04044350784943 113.56383905414623) rotate(0 52.40813446044922 70)"><text x="0" y="0" font-family="Virgil, Segoe UI Emoji" font-size="16px" fill="#1e1e1e" text-anchor="start" style="white-space: pre;" direction="ltr" dominant-baseline="text-before-edge">h1, h2, h3, h4</text><text x="0" y="20" font-family="Virgil, Segoe UI Emoji" font-size="16px" fill="#1e1e1e" text-anchor="start" style="white-space: pre;" direction="ltr" dominant-baseline="text-before-edge">p</text><text x="0" y="40" font-family="Virgil, Segoe UI Emoji" font-size="16px" fill="#1e1e1e" text-anchor="start" style="white-space: pre;" direction="ltr" dominant-baseline="text-before-edge">code</text><text x="0" y="60" font-family="Virgil, Segoe UI Emoji" font-size="16px" fill="#1e1e1e" text-anchor="start" style="white-space: pre;" direction="ltr" dominant-baseline="text-before-edge">ol, ul</text><text x="0" y="80" font-family="Virgil, Segoe UI Emoji" font-size="16px" fill="#1e1e1e" text-anchor="start" style="white-space: pre;" direction="ltr" dominant-baseline="text-before-edge">a</text><text x="0" y="100" font-family="Virgil, Segoe UI Emoji" font-size="16px" fill="#1e1e1e" text-anchor="start" style="white-space: pre;" direction="ltr" dominant-baseline="text-before-edge">svg</text><text x="0" y="120" font-family="Virgil, Segoe UI Emoji" font-size="16px" fill="#1e1e1e" text-anchor="start" style="white-space: pre;" direction="ltr" dominant-baseline="text-before-edge">img</text></g><g stroke-linecap="round"><g transform="translate(185.22734340201293 150.38222384945766) rotate(0 -18.98820134328787 6.587743323181712)"><path d="M0 0 C-13.22 4.55, -25.04 8.96, -37.98 13.18 M0 0 C-11.64 3.9, -23.14 8.34, -37.98 13.18" stroke="#e03131" stroke-width="2" fill="none"></path></g><g transform="translate(185.22734340201293 150.38222384945766) rotate(0 -18.98820134328787 6.587743323181712)"><path d="M-22.29 0.62 C-27.86 4.91, -32.04 9.11, -37.98 13.18 M-22.29 0.62 C-27.19 4.39, -31.96 8.65, -37.98 13.18" stroke="#e03131" stroke-width="2" fill="none"></path></g><g transform="translate(185.22734340201293 150.38222384945766) rotate(0 -18.98820134328787 6.587743323181712)"><path d="M-17.88 13.64 C-25.02 13.47, -30.7 13.21, -37.98 13.18 M-17.88 13.64 C-24.1 13.47, -30.2 13.79, -37.98 13.18" stroke="#e03131" stroke-width="2" fill="none"></path></g></g><mask></mask><g transform="translate(95.44990114517293 57.583185074513494) rotate(0 6.249992370605469 12.5)"><text x="0" y="0" font-family="Virgil, Segoe UI Emoji" font-size="20px" fill="#69db7c" text-anchor="start" style="white-space: pre;" direction="ltr" dominant-baseline="text-before-edge">+</text></g></svg>