<svg version="1.1" xmlns="http://www.w3.org/2000/svg" viewBox="0 0 396.3557254090492 255.21641313903" width="396.3557254090492" height="255.21641313903">
  <!-- svg-source:excalidraw -->
  
  <defs>
    <style class="style-fonts">
      @font-face {
        font-family: "Virgil";
        src: url("https://excalidraw.com/Virgil.woff2");
      }
      @font-face {
        font-family: "Cascadia";
        src: url("https://excalidraw.com/Cascadia.woff2");
      }
      @font-face {
        font-family: "Assistant";
        src: url("https://excalidraw.com/Assistant-Regular.woff2");
      }
    </style>
    
  </defs>
  <g stroke-linecap="round" transform="translate(10 10) rotate(0 188.1778627045246 26.824215599952367)"><path d="M13.41 0 C111.14 2.47, 211.31 4.43, 362.94 0 C375.02 -3.27, 376.66 1.68, 376.36 13.41 C374.04 26.14, 373.17 31.15, 376.36 40.24 C373.22 46.69, 369.68 54.83, 362.94 53.65 C256.41 57.88, 146.21 58.16, 13.41 53.65 C5.2 51.92, -2.55 47.99, 0 40.24 C1.1 29.4, -2.3 22.11, 0 13.41 C0.39 5.88, 0.95 -2.89, 13.41 0" stroke="none" stroke-width="0" fill="#f8f9fa"></path><path d="M13.41 0 C121.93 1.77, 232.38 2.02, 362.94 0 M13.41 0 C114.51 -1.91, 215.21 -2.46, 362.94 0 M362.94 0 C372.86 -0.11, 377.59 5.57, 376.36 13.41 M362.94 0 C372.32 0.45, 374.67 6.51, 376.36 13.41 M376.36 13.41 C377.08 17.95, 374.58 25.18, 376.36 40.24 M376.36 13.41 C376.02 22.78, 376.46 33.31, 376.36 40.24 M376.36 40.24 C375.82 50.53, 371.08 51.91, 362.94 53.65 M376.36 40.24 C377.8 49.14, 370.8 55.67, 362.94 53.65 M362.94 53.65 C258.62 54.71, 154.8 56.83, 13.41 53.65 M362.94 53.65 C284.73 52.15, 205.47 51.85, 13.41 53.65 M13.41 53.65 C5.84 52.99, -0.59 50.38, 0 40.24 M13.41 53.65 C4.75 54.15, -1.9 50.04, 0 40.24 M0 40.24 C-0.73 33.07, 2.24 24.78, 0 13.41 M0 40.24 C-0.07 33.5, -0.17 26.51, 0 13.41 M0 13.41 C-1.68 5.2, 4.74 0.34, 13.41 0 M0 13.41 C-1.84 3.06, 2.29 -0.7, 13.41 0" stroke="#1e1e1e" stroke-width="2" fill="none"></path></g><g stroke-linecap="round" transform="translate(13.69541522689451 64.78490812674863) rotate(0 69.95518106720692 19.041055201725158)"><path d="M9.52 0 C39.09 2.42, 64.77 -2.35, 130.39 0 C137.04 -2.8, 142.21 2.5, 139.91 9.52 C136.75 12.54, 136.71 16.6, 139.91 28.56 C137.71 36.09, 137.14 35.57, 130.39 38.08 C85.71 40.89, 39.3 37.25, 9.52 38.08 C0.62 36.89, -0.97 32.61, 0 28.56 C-2.56 20.78, 0.3 20.96, 0 9.52 C-3.52 0.29, 3.84 -0.09, 9.52 0" stroke="none" stroke-width="0" fill="#b2f2bb"></path><path d="M9.52 0 C40.95 1, 73.67 0.96, 130.39 0 M9.52 0 C58.15 -0.92, 105.56 -0.53, 130.39 0 M130.39 0 C137.97 1.1, 140.29 3.57, 139.91 9.52 M130.39 0 C135.05 2.04, 138.07 3.49, 139.91 9.52 M139.91 9.52 C138.25 14.75, 140.99 19.59, 139.91 28.56 M139.91 9.52 C140.02 15.57, 139.6 20.46, 139.91 28.56 M139.91 28.56 C139.1 33.17, 137.99 38.05, 130.39 38.08 M139.91 28.56 C138.82 36.93, 136.71 39.79, 130.39 38.08 M130.39 38.08 C85.05 39.11, 35.45 39.22, 9.52 38.08 M130.39 38.08 C100.66 37.11, 72.88 37.48, 9.52 38.08 M9.52 38.08 C2.59 39.29, 0.24 35.34, 0 28.56 M9.52 38.08 C1.27 38.94, -0.43 32.64, 0 28.56 M0 28.56 C1.97 22.75, -0.46 17.85, 0 9.52 M0 28.56 C-0.12 24.78, -0.79 19.8, 0 9.52 M0 9.52 C0.27 3.51, 1.58 -1.22, 9.52 0 M0 9.52 C-2.18 2.48, 2.71 1.47, 9.52 0" stroke="#1e1e1e" stroke-width="2" fill="none"></path></g><g stroke-linecap="round" transform="translate(21.0543121730052 16.72463172364587) rotate(0 22.045947013559157 19.596397345385867)"><path d="M17.03 0.35 C21.29 -0.68, 27.87 0.44, 32.2 2.42 C36.53 4.39, 41.23 8.32, 43 12.21 C44.78 16.11, 44.45 21.76, 42.85 25.76 C41.24 29.76, 37.32 34.03, 33.37 36.22 C29.43 38.42, 23.74 39.59, 19.19 38.93 C14.63 38.26, 9.2 35.35, 6.03 32.25 C2.86 29.14, 0.4 24.49, 0.19 20.29 C-0.01 16.1, 1.79 10.51, 4.8 7.09 C7.8 3.67, 15.77 0.89, 18.21 -0.22 C20.65 -1.33, 19.26 0.09, 19.42 0.42 M22.16 0.65 C26.58 0.26, 31.89 1.89, 35.38 4.53 C38.88 7.18, 42.19 12.45, 43.14 16.5 C44.09 20.55, 43.4 25.17, 41.1 28.85 C38.79 32.53, 33.82 37.09, 29.31 38.57 C24.8 40.04, 18.53 39.29, 14.05 37.7 C9.56 36.11, 4.77 32.54, 2.4 29.03 C0.03 25.51, -1.06 20.76, -0.16 16.61 C0.74 12.47, 4.04 6.83, 7.81 4.18 C11.57 1.53, 20.05 1.3, 22.45 0.72 C24.84 0.13, 22.19 0.42, 22.16 0.65" stroke="none" stroke-width="0" fill="#d0bfff"></path><path d="M27.4 0.97 C31.71 1.64, 36.78 4.84, 39.55 8.19 C42.32 11.55, 44.23 16.95, 44.02 21.11 C43.81 25.28, 41.54 30.26, 38.3 33.19 C35.07 36.12, 29.29 38.31, 24.63 38.7 C19.96 39.09, 14.25 37.81, 10.31 35.53 C6.37 33.25, 2.36 29.05, 0.97 25.03 C-0.41 21.02, 0.21 15.26, 2.01 11.43 C3.8 7.6, 7.35 3.84, 11.77 2.04 C16.18 0.25, 25.63 0.79, 28.49 0.67 C31.35 0.54, 29.09 0.96, 28.93 1.3 M26.92 -0.11 C31.46 0.5, 37.46 4.35, 40.26 7.95 C43.05 11.55, 44.07 17.19, 43.69 21.48 C43.32 25.76, 41.1 30.71, 38.01 33.66 C34.92 36.61, 29.94 38.72, 25.16 39.19 C20.38 39.65, 13.26 38.87, 9.33 36.44 C5.41 34, 2.73 28.76, 1.6 24.57 C0.48 20.38, 0.75 15.09, 2.58 11.31 C4.42 7.53, 8.57 3.76, 12.6 1.87 C16.63 -0.01, 24.25 0.22, 26.75 0.02 C29.26 -0.18, 27.68 0.2, 27.63 0.68" stroke="#1e1e1e" stroke-width="2" fill="none"></path></g><g transform="translate(26.46960382348425 72.15993702278865) rotate(0 49.229949951171875 12.5)"><text x="0" y="0" font-family="Virgil, Segoe UI Emoji" font-size="20px" fill="#1e1e1e" text-anchor="start" style="white-space: pre;" direction="ltr" dominant-baseline="text-before-edge">category0</text></g><g transform="translate(123.90315515242719 23.19471201629858) rotate(0 89.28990936279297 12.5)"><text x="0" y="0" font-family="Virgil, Segoe UI Emoji" font-size="20px" fill="#1e1e1e" text-anchor="start" style="white-space: pre;" direction="ltr" dominant-baseline="text-before-edge">Category0-Article1</text></g><g stroke-linecap="round" transform="translate(16.860648790574032 102.06804534010371) rotate(0 48.31704558175966 10.98114672312704)"><path d="M5.49 0 C22.66 -1.93, 46.55 -2.81, 91.14 0 C93.02 -3.14, 94.15 -0.37, 96.63 5.49 C98.23 11.03, 97.47 13.48, 96.63 16.47 C98.55 20.86, 93.08 19.41, 91.14 21.96 C65.93 21.77, 41.89 18.36, 5.49 21.96 C-1.65 22.35, 1.41 16.61, 0 16.47 C-0.45 14.1, -1.58 13.11, 0 5.49 C-2.94 1.85, 5.08 -1.86, 5.49 0" stroke="none" stroke-width="0" fill="#40c057"></path><path d="M5.49 0 C36.58 0.25, 69.33 0.5, 91.14 0 M5.49 0 C35.16 0.72, 65.49 -0.03, 91.14 0 M91.14 0 C94.33 0.69, 95.27 0.02, 96.63 5.49 M91.14 0 C94.76 1.22, 96.09 1.15, 96.63 5.49 M96.63 5.49 C97.66 8.19, 97.36 11.05, 96.63 16.47 M96.63 5.49 C96.44 8.31, 96.7 10.57, 96.63 16.47 M96.63 16.47 C98.36 20.44, 93.42 23.34, 91.14 21.96 M96.63 16.47 C98.78 18.4, 97.08 20.6, 91.14 21.96 M91.14 21.96 C59.9 22.79, 30.78 20.84, 5.49 21.96 M91.14 21.96 C59.46 22.52, 29.24 21.16, 5.49 21.96 M5.49 21.96 C1.57 20.97, 0.39 22.1, 0 16.47 M5.49 21.96 C1.41 21.3, 0.27 18.73, 0 16.47 M0 16.47 C0.84 12.3, 0.34 10.12, 0 5.49 M0 16.47 C-0.43 12.82, -0.02 9.86, 0 5.49 M0 5.49 C-1.69 1.76, 0.98 1.95, 5.49 0 M0 5.49 C0.96 3.83, -0.26 0.19, 5.49 0" stroke="#1e1e1e" stroke-width="2" fill="none"></path></g><g transform="translate(26.369261925412957 104.28799256695129) rotate(0 31.048072814941406 10)"><text x="0" y="0" font-family="Virgil, Segoe UI Emoji" font-size="16px" fill="#1e1e1e" text-anchor="start" style="white-space: pre;" direction="ltr" dominant-baseline="text-before-edge">article0</text></g><g stroke-linecap="round" transform="translate(17.730316966983537 147.87853580420415) rotate(0 48.31704558175966 10.98114672312704)"><path d="M5.49 0 C24.12 -1.81, 43.82 -0.88, 91.14 0 C95.99 0.4, 94.12 4.7, 96.63 5.49 C97.76 10.23, 95.77 12.77, 96.63 16.47 C95.45 19.16, 92.5 19.62, 91.14 21.96 C60.09 21.23, 37.4 17.32, 5.49 21.96 C-1.06 22.63, -0.09 19.38, 0 16.47 C-1.46 13.17, 1.94 8.82, 0 5.49 C0.84 5.39, 4.89 -0.62, 5.49 0" stroke="none" stroke-width="0" fill="#e9ecef"></path><path d="M5.49 0 C36.48 -0.15, 65.67 -1.99, 91.14 0 M5.49 0 C38.53 0.22, 71.36 -1.03, 91.14 0 M91.14 0 C94.77 1.06, 96.16 1.24, 96.63 5.49 M91.14 0 C94.19 -0.26, 97.02 4.01, 96.63 5.49 M96.63 5.49 C95.75 9.18, 96.69 10.97, 96.63 16.47 M96.63 5.49 C97.11 9.83, 96.25 14.39, 96.63 16.47 M96.63 16.47 C98.5 18.63, 96.78 20.78, 91.14 21.96 M96.63 16.47 C97.75 19.6, 93.36 20.35, 91.14 21.96 M91.14 21.96 C60.8 21.96, 28.47 20.06, 5.49 21.96 M91.14 21.96 C62.11 20.62, 33.54 22.1, 5.49 21.96 M5.49 21.96 C1.47 21.38, 0.23 18.92, 0 16.47 M5.49 21.96 C1.74 23.2, -0.31 22.01, 0 16.47 M0 16.47 C0.15 13.23, -0.71 10.69, 0 5.49 M0 16.47 C-0.44 13.49, -0.21 11.08, 0 5.49 M0 5.49 C0.84 3.57, 0.01 0.17, 5.49 0 M0 5.49 C-1.79 3.3, 1.4 -1.2, 5.49 0" stroke="#1e1e1e" stroke-width="2" fill="none"></path></g><g transform="translate(22.124322167345554 151.89899778125618) rotate(0 42.52809143066406 10)"><text x="0" y="0" font-family="Virgil, Segoe UI Emoji" font-size="16px" fill="#1e1e1e" text-anchor="start" style="white-space: pre;" direction="ltr" dominant-baseline="text-before-edge">new article</text></g><g stroke-linecap="round" transform="translate(18.034313916172778 123.65011837943166) rotate(0 48.31704558175966 10.98114672312704)"><path d="M5.49 0 C24.9 1.35, 39.43 3.82, 91.14 0 C98.23 1.48, 97.86 3.74, 96.63 5.49 C95.89 8.47, 95.28 11.23, 96.63 16.47 C97.43 16.62, 92.19 18.49, 91.14 21.96 C61.63 21.12, 37.8 19.7, 5.49 21.96 C1.9 19.15, 2.67 17.19, 0 16.47 C0.28 15.13, 1.5 9.53, 0 5.49 C1.4 -1.29, 0.39 -2.8, 5.49 0" stroke="none" stroke-width="0" fill="#40c057"></path><path d="M5.49 0 C34.57 -0.97, 60.38 0.15, 91.14 0 M5.49 0 C34.11 1.31, 62.53 0.48, 91.14 0 M91.14 0 C94.27 -0.22, 96.97 3.73, 96.63 5.49 M91.14 0 C94.19 1.55, 95.71 -0.17, 96.63 5.49 M96.63 5.49 C97.6 9.46, 97.45 14.41, 96.63 16.47 M96.63 5.49 C97.07 8.54, 97.1 12.09, 96.63 16.47 M96.63 16.47 C97.6 19.67, 93.55 20.56, 91.14 21.96 M96.63 16.47 C98.21 19.37, 94.13 23.35, 91.14 21.96 M91.14 21.96 C65.15 20.88, 35.68 20.99, 5.49 21.96 M91.14 21.96 C69.51 22.52, 48.36 22.2, 5.49 21.96 M5.49 21.96 C1.75 23.04, -0.27 21.76, 0 16.47 M5.49 21.96 C-0.11 22.8, 0.31 20.52, 0 16.47 M0 16.47 C-0.27 13.83, 0.77 10.71, 0 5.49 M0 16.47 C0.28 13.69, -0.45 10.01, 0 5.49 M0 5.49 C-1.55 3.11, 1.46 -1.04, 5.49 0 M0 5.49 C-1.42 3.73, -0.15 -1.14, 5.49 0" stroke="#1e1e1e" stroke-width="2" fill="none"></path></g><g transform="translate(28.13898554228581 125.87006560627924) rotate(0 27.712066650390625 10)"><text x="0" y="0" font-family="Virgil, Segoe UI Emoji" font-size="16px" fill="#1e1e1e" text-anchor="start" style="white-space: pre;" direction="ltr" dominant-baseline="text-before-edge">article1</text></g><g stroke-linecap="round" transform="translate(12.662565870370827 183.91118233717862) rotate(0 69.95518106720692 19.041055201725158)"><path d="M9.52 0 C50.56 -0.26, 85.97 0.18, 130.39 0 C137.46 -1.73, 137.36 1.99, 139.91 9.52 C140.45 11.38, 137.2 16.61, 139.91 28.56 C140.3 36.32, 133.22 35.2, 130.39 38.08 C91.97 34.81, 56.08 34.69, 9.52 38.08 C3.19 41.33, -1.86 35.75, 0 28.56 C1.04 18, -1.66 10.71, 0 9.52 C1.87 2.92, 1.77 -0.17, 9.52 0" stroke="none" stroke-width="0" fill="#b2f2bb"></path><path d="M9.52 0 C36.8 -1.07, 60.89 0.25, 130.39 0 M9.52 0 C51.95 0.25, 95.08 1.31, 130.39 0 M130.39 0 C136.2 1.35, 139.1 1.43, 139.91 9.52 M130.39 0 C138.18 -0.03, 138.82 5.19, 139.91 9.52 M139.91 9.52 C140.35 13.89, 141.36 22.69, 139.91 28.56 M139.91 9.52 C140.56 13.58, 139.5 17.41, 139.91 28.56 M139.91 28.56 C141.28 34.25, 136.15 39.29, 130.39 38.08 M139.91 28.56 C140.19 35.41, 134.84 38.94, 130.39 38.08 M130.39 38.08 C95.38 38.31, 64.33 37.56, 9.52 38.08 M130.39 38.08 C97.58 37.89, 64.71 38.16, 9.52 38.08 M9.52 38.08 C1.49 38.81, 0.27 35.25, 0 28.56 M9.52 38.08 C1.34 36.67, -2.18 34.21, 0 28.56 M0 28.56 C-0.19 22.43, 1.74 18.7, 0 9.52 M0 28.56 C-0.57 21.8, 0 13.33, 0 9.52 M0 9.52 C-1.23 4.82, 1.45 -0.99, 9.52 0 M0 9.52 C-2.01 1.58, 1.77 0.76, 9.52 0" stroke="#1e1e1e" stroke-width="2" fill="none"></path></g><g transform="translate(25.436754466960792 191.28621123321864) rotate(0 45.05995178222656 12.5)"><text x="0" y="0" font-family="Virgil, Segoe UI Emoji" font-size="20px" fill="#1e1e1e" text-anchor="start" style="white-space: pre;" direction="ltr" dominant-baseline="text-before-edge">category1</text></g><g stroke-linecap="round" transform="translate(168.6464791575329 82.22578471322231) rotate(0 91.52544660526291 12.02241035916586)"><path d="M6.01 0 C65.06 -3.36, 120.1 -2.82, 177.04 0 C180.08 -2.3, 180.71 2.8, 183.05 6.01 C183.13 9.3, 180.78 9.14, 183.05 18.03 C183.71 21.95, 180.29 24.12, 177.04 24.04 C139.13 24.78, 99.32 22.37, 6.01 24.04 C5.56 27.11, -0.62 23.44, 0 18.03 C1.21 15.32, -0.76 12.8, 0 6.01 C-0.27 -0.88, 2.94 0.45, 6.01 0" stroke="none" stroke-width="0" fill="#d0bfff"></path><path d="M6.01 0 C46.75 -0.44, 84.77 -0.51, 177.04 0 M6.01 0 C55.13 -0.95, 104.39 -2.49, 177.04 0 M177.04 0 C182.3 -0.03, 182.11 3.76, 183.05 6.01 M177.04 0 C181.02 1.7, 185.04 2.36, 183.05 6.01 M183.05 6.01 C182.23 9.97, 182.42 12.14, 183.05 18.03 M183.05 6.01 C183.39 9.14, 182.8 13.04, 183.05 18.03 M183.05 18.03 C183.3 22.48, 179.39 24.79, 177.04 24.04 M183.05 18.03 C182.62 19.77, 180.75 22.9, 177.04 24.04 M177.04 24.04 C121.84 23.97, 66.59 23.65, 6.01 24.04 M177.04 24.04 C115.65 25.8, 56.08 25.61, 6.01 24.04 M6.01 24.04 C0.41 22.82, -1.9 21.43, 0 18.03 M6.01 24.04 C1.54 25.51, -1.94 21.96, 0 18.03 M0 18.03 C0.93 13.84, -0.02 10.9, 0 6.01 M0 18.03 C-0.35 14.15, -0.49 8.99, 0 6.01 M0 6.01 C-1.74 0.62, 0.78 0.66, 6.01 0 M0 6.01 C0.26 0.4, 3.84 2.19, 6.01 0" stroke="#1e1e1e" stroke-width="2" fill="none"></path></g><g transform="translate(203.5502511680147 86.10398160327532) rotate(0 37.20008087158203 10)"><text x="0" y="0" font-family="Virgil, Segoe UI Emoji" font-size="16px" fill="#1e1e1e" text-anchor="start" style="white-space: pre;" direction="ltr" dominant-baseline="text-before-edge">Section 0</text></g><g stroke-linecap="round"><g transform="translate(297.2432100156243 91.52847192531863) rotate(179.50308907654795 4.505820657273716 3.330389181463488)"><path d="M-0.1 -0.04 C1.43 1.14, 7.57 5.84, 9.07 7 M0.5 -0.37 C1.99 0.74, 7.47 5.43, 8.82 6.55" stroke="#1e1e1e" stroke-width="1" fill="none"></path></g></g><mask></mask><g stroke-linecap="round"><g transform="translate(289.0205602687024 98.15750404856863) rotate(179.50308907654795 4.309915411305383 -3.330389181463488)"><path d="M0.06 0.34 C1.5 -0.73, 7.12 -5.2, 8.52 -6.42 M-0.34 0.2 C1.05 -0.96, 6.78 -5.76, 8.2 -6.92" stroke="#1e1e1e" stroke-width="1" fill="none"></path></g></g><mask></mask><g stroke-linecap="round" transform="translate(168.75242497353065 189.98928705117032) rotate(0 91.52544660526291 12.02241035916586)"><path d="M6.01 0 C42.88 -3.29, 83.3 -0.29, 177.04 0 C182.46 -3.52, 180.17 2.67, 183.05 6.01 C181.31 11.19, 181.24 13.18, 183.05 18.03 C186.3 20.18, 181.89 27.6, 177.04 24.04 C108.07 23.8, 42.54 27.11, 6.01 24.04 C1.75 22.64, -0.17 21.77, 0 18.03 C-1.53 15.58, 1.79 14.21, 0 6.01 C-0.59 2.25, 0.6 1.32, 6.01 0" stroke="none" stroke-width="0" fill="#d0bfff"></path><path d="M6.01 0 C61.56 -0.35, 112.67 1.72, 177.04 0 M6.01 0 C57.06 -0.76, 109 -1.35, 177.04 0 M177.04 0 C179.66 1.38, 184.92 0.5, 183.05 6.01 M177.04 0 C183.32 -1.36, 184.17 1.48, 183.05 6.01 M183.05 6.01 C182.57 8.51, 183.69 11.86, 183.05 18.03 M183.05 6.01 C182.84 9.29, 182.87 13.45, 183.05 18.03 M183.05 18.03 C183.44 24.01, 180.68 23.47, 177.04 24.04 M183.05 18.03 C183.32 20.64, 180.95 25.29, 177.04 24.04 M177.04 24.04 C128.79 22.87, 79.41 21.01, 6.01 24.04 M177.04 24.04 C136 24.16, 94.52 23.49, 6.01 24.04 M6.01 24.04 C1.16 25.99, 0.84 23.78, 0 18.03 M6.01 24.04 C-0.09 24.24, -1.79 23.51, 0 18.03 M0 18.03 C1.05 13.62, -0.53 10.22, 0 6.01 M0 18.03 C0.14 14.84, 0.55 13.05, 0 6.01 M0 6.01 C0.82 2.69, 3.07 0.4, 6.01 0 M0 6.01 C-1.1 0.37, 1.24 -0.62, 6.01 0" stroke="#1e1e1e" stroke-width="2" fill="none"></path></g><g transform="translate(203.65619698401224 193.86748394122333) rotate(0 33.86407470703125 10)"><text x="0" y="0" font-family="Virgil, Segoe UI Emoji" font-size="16px" fill="#1e1e1e" text-anchor="start" style="white-space: pre;" direction="ltr" dominant-baseline="text-before-edge">Section 1</text></g><g stroke-linecap="round"><g transform="translate(288.8852732980258 199.328676984509) rotate(0 4.505820657273716 3.330389181463488)"><path d="M0.22 -0.01 C1.72 1.21, 7.38 5.82, 8.84 6.97 M-0.09 -0.31 C1.36 0.83, 7 5.4, 8.48 6.51" stroke="#1e1e1e" stroke-width="1" fill="none"></path></g></g><mask></mask><g stroke-linecap="round"><g transform="translate(297.89691461257325 205.9894553474369) rotate(0 4.309915411305383 -3.330389181463488)"><path d="M-0.17 0.31 C1.23 -0.75, 7.1 -5.24, 8.62 -6.4 M0.39 0.16 C1.72 -1, 6.93 -5.83, 8.34 -6.89" stroke="#1e1e1e" stroke-width="1" fill="none"></path></g></g><mask></mask><g stroke-linecap="round" transform="translate(167.82467345775444 106.3850765286461) rotate(0 92.63790294610692 42.13462707554709)"><path d="M21.07 0 C80.64 4.6, 134.13 4.13, 164.21 0 C176.59 -0.23, 183.73 4.99, 185.28 21.07 C183.71 36.8, 188 47.58, 185.28 63.2 C186.34 78.52, 176.67 85.51, 164.21 84.27 C123.11 82.89, 83.19 86.35, 21.07 84.27 C8.27 85.3, 3.44 77.39, 0 63.2 C3.39 44.58, -1.11 30.82, 0 21.07 C-1.94 7.63, 7.93 -1.67, 21.07 0" stroke="none" stroke-width="0" fill="#9775fa"></path><path d="M21.07 0 C68.56 -1.66, 111.25 -0.27, 164.21 0 M21.07 0 C77.74 0.14, 132.64 0.21, 164.21 0 M164.21 0 C176.95 -1.9, 185.06 6.46, 185.28 21.07 M164.21 0 C176.15 0.61, 184.9 6.2, 185.28 21.07 M185.28 21.07 C183.92 33.3, 185.9 41.8, 185.28 63.2 M185.28 21.07 C185.05 29.31, 186.09 38.22, 185.28 63.2 M185.28 63.2 C184.28 76.73, 178.2 83.91, 164.21 84.27 M185.28 63.2 C186.74 78.56, 179.99 85.13, 164.21 84.27 M164.21 84.27 C111.15 82.49, 56.43 84.27, 21.07 84.27 M164.21 84.27 C115.39 85.92, 67.29 85.04, 21.07 84.27 M21.07 84.27 C5.41 82.56, 1.15 77.47, 0 63.2 M21.07 84.27 C7.26 84.43, 0.69 78.18, 0 63.2 M0 63.2 C-1.57 46.35, -0.12 34.97, 0 21.07 M0 63.2 C0.18 54.36, 0.31 43.63, 0 21.07 M0 21.07 C-1.41 6.56, 6.85 0.81, 21.07 0 M0 21.07 C0.04 7.94, 5.37 1.68, 21.07 0" stroke="#1e1e1e" stroke-width="2" fill="none"></path></g><g transform="translate(232.23007264885746 111.67867098270926) rotate(0 28.168067932128906 10)"><text x="0" y="0" font-family="Virgil, Segoe UI Emoji" font-size="16px" fill="#1e1e1e" text-anchor="start" style="white-space: pre;" direction="ltr" dominant-baseline="text-before-edge">Heading</text></g><g transform="translate(177.97072949470908 127.50679896257043) rotate(0 19.82404327392578 10)"><text x="0" y="0" font-family="Virgil, Segoe UI Emoji" font-size="16px" fill="#1e1e1e" text-anchor="start" style="white-space: pre;" direction="ltr" dominant-baseline="text-before-edge">Text</text></g><g transform="translate(175.04352822143778 149.63422290153267) rotate(0 27.23204803466797 10)"><text x="0" y="0" font-family="Virgil, Segoe UI Emoji" font-size="16px" fill="#1e1e1e" text-anchor="start" style="white-space: pre;" direction="ltr" dominant-baseline="text-before-edge">&lt;Code&gt;</text></g><g transform="translate(254.0275488277448 166.49710966098883) rotate(0 6.249992370605469 12.5)"><text x="0" y="0" font-family="Virgil, Segoe UI Emoji" font-size="20px" fill="#1e1e1e" text-anchor="start" style="white-space: pre;" direction="ltr" dominant-baseline="text-before-edge">+</text></g><g stroke-linecap="round" transform="translate(169.0747360695948 222.26125780080565) rotate(0 91.52544660526291 10.14166019115737)"><path d="M5.07 0 C61.77 1.59, 111.72 -4.84, 177.98 0 C181.11 -2.18, 185.42 5.14, 183.05 5.07 C182.89 6.78, 184.17 11.26, 183.05 15.21 C185.55 21.43, 182.2 17.66, 177.98 20.28 C123.58 19.3, 62.98 21.26, 5.07 20.28 C4.56 21.65, -1 19.57, 0 15.21 C0.99 10.86, 1.5 8.62, 0 5.07 C2.42 4.33, 4.71 -1.53, 5.07 0" stroke="none" stroke-width="0" fill="#e9ecef"></path><path d="M5.07 0 C42.45 1.9, 80.19 -0.23, 177.98 0 M5.07 0 C65.98 0.85, 128.09 1.12, 177.98 0 M177.98 0 C181.22 0.13, 184.1 1.45, 183.05 5.07 M177.98 0 C183.38 1.37, 182.11 -0.51, 183.05 5.07 M183.05 5.07 C182.69 8.08, 183.94 9.28, 183.05 15.21 M183.05 5.07 C182.66 7.97, 183.41 10.71, 183.05 15.21 M183.05 15.21 C182.21 18.28, 182.82 20.09, 177.98 20.28 M183.05 15.21 C185.14 16.57, 180.68 18.26, 177.98 20.28 M177.98 20.28 C131.46 21.44, 83.62 19.16, 5.07 20.28 M177.98 20.28 C118.06 22.02, 56.71 20.85, 5.07 20.28 M5.07 20.28 C1.6 21.39, 0.09 18.57, 0 15.21 M5.07 20.28 C1.08 19.11, 1.09 16.41, 0 15.21 M0 15.21 C0.45 12.43, 0.44 7.69, 0 5.07 M0 15.21 C0.18 12, -0.19 8.32, 0 5.07 M0 5.07 C-0.89 3.21, 1.6 0.76, 5.07 0 M0 5.07 C1.77 2.01, -0.06 -2.3, 5.07 0" stroke="#1e1e1e" stroke-width="2" fill="none"></path></g><g transform="translate(254.79661997142512 220.21641313903) rotate(0 6.249992370605469 12.5)"><text x="0" y="0" font-family="Virgil, Segoe UI Emoji" font-size="20px" fill="#1e1e1e" text-anchor="start" style="white-space: pre;" direction="ltr" dominant-baseline="text-before-edge">+</text></g></svg>