<svg version="1.1" xmlns="http://www.w3.org/2000/svg" viewBox="0 0 396.3557254090492 231.99329274062893" width="396.3557254090492" height="231.99329274062893">
  <!-- svg-source:excalidraw -->
  
  <defs>
    <style class="style-fonts">
      @font-face {
        font-family: "Virgil";
        src: url("https://excalidraw.com/Virgil.woff2");
      }
      @font-face {
        font-family: "Cascadia";
        src: url("https://excalidraw.com/Cascadia.woff2");
      }
      @font-face {
        font-family: "Assistant";
        src: url("https://excalidraw.com/Assistant-Regular.woff2");
      }
    </style>
    
  </defs>
  <g stroke-linecap="round" transform="translate(10 10) rotate(0 188.1778627045246 26.824215599952367)"><path d="M13.41 0 C148.34 0.27, 283.81 -1.72, 362.94 0 C373.24 0.13, 377.18 2.92, 376.36 13.41 C375.72 18.31, 378.45 28.83, 376.36 40.24 C376.01 49.34, 369.48 54.84, 362.94 53.65 C240.29 56.83, 115.9 54.4, 13.41 53.65 C3.85 52.65, 1.89 47.83, 0 40.24 C2.32 35.77, -2.51 29.15, 0 13.41 C3.06 6.72, 7.27 -1.77, 13.41 0" stroke="none" stroke-width="0" fill="#f8f9fa"></path><path d="M13.41 0 C102.13 -1.13, 192.58 -0.32, 362.94 0 M13.41 0 C108.57 -2.14, 204.1 -0.95, 362.94 0 M362.94 0 C371.6 1.31, 374.83 3.64, 376.36 13.41 M362.94 0 C373.61 1.84, 378.61 3.16, 376.36 13.41 M376.36 13.41 C375.36 20.54, 377.91 23.78, 376.36 40.24 M376.36 13.41 C377.31 21.63, 377.06 32.08, 376.36 40.24 M376.36 40.24 C376.96 48.74, 371.9 55.29, 362.94 53.65 M376.36 40.24 C377.28 47.86, 370.64 52.12, 362.94 53.65 M362.94 53.65 C269.76 54.31, 175.74 53.75, 13.41 53.65 M362.94 53.65 C238.71 51.92, 113.01 51.29, 13.41 53.65 M13.41 53.65 C5.99 52.64, 1.65 50.25, 0 40.24 M13.41 53.65 C5.16 52.72, -1.99 48.97, 0 40.24 M0 40.24 C-0.97 31.16, -1.88 22.55, 0 13.41 M0 40.24 C0.77 32.9, 0.86 25.52, 0 13.41 M0 13.41 C1.62 4.42, 6.01 1.03, 13.41 0 M0 13.41 C1.31 3.65, 3.83 0.05, 13.41 0" stroke="#1e1e1e" stroke-width="2" fill="none"></path></g><g stroke-linecap="round" transform="translate(13.69541522689451 64.78490812674863) rotate(0 69.95518106720692 19.041055201725158)"><path d="M9.52 0 C47.55 -2.74, 84.92 -0.35, 130.39 0 C137.56 -1.55, 139.45 1.38, 139.91 9.52 C142.09 14.51, 139.54 19.65, 139.91 28.56 C137.51 36.1, 138.57 37.72, 130.39 38.08 C88.53 39.73, 51.35 39.11, 9.52 38.08 C5.07 36.74, -3.49 34.07, 0 28.56 C-2.7 24.56, 2.7 23.06, 0 9.52 C2.8 1.41, 3.77 2.11, 9.52 0" stroke="none" stroke-width="0" fill="#b2f2bb"></path><path d="M9.52 0 C44.25 0.46, 79.8 1.15, 130.39 0 M9.52 0 C54.4 2.01, 98.23 1.77, 130.39 0 M130.39 0 C135.21 -0.83, 141.41 4.77, 139.91 9.52 M130.39 0 C138.99 -1.32, 138.28 2.68, 139.91 9.52 M139.91 9.52 C141.36 11.79, 140.62 19, 139.91 28.56 M139.91 9.52 C140.55 17.4, 140.34 24.45, 139.91 28.56 M139.91 28.56 C139.93 36.55, 137.54 36.93, 130.39 38.08 M139.91 28.56 C138.66 33.38, 136.03 38.52, 130.39 38.08 M130.39 38.08 C89.27 35.93, 46.45 36.38, 9.52 38.08 M130.39 38.08 C104.75 38.56, 81.55 38.37, 9.52 38.08 M9.52 38.08 C4.82 39.16, 0.6 34.1, 0 28.56 M9.52 38.08 C1.19 37.88, 1.4 35.72, 0 28.56 M0 28.56 C-1.61 23.16, -0.57 15.19, 0 9.52 M0 28.56 C0.74 22.2, 0.61 16.67, 0 9.52 M0 9.52 C1.54 4.2, 4.31 -0.71, 9.52 0 M0 9.52 C-0.64 3.23, 5.15 1.5, 9.52 0" stroke="#1e1e1e" stroke-width="2" fill="none"></path></g><g stroke-linecap="round" transform="translate(21.054312173005087 16.72463172364587) rotate(0 22.045947013559214 19.596397345385867)"><path d="M17.5 0.79 C21.8 -0.33, 27.97 0.43, 32.05 2.39 C36.13 4.35, 40.18 8.67, 41.99 12.56 C43.79 16.44, 44.23 21.69, 42.89 25.69 C41.54 29.7, 37.88 34.28, 33.91 36.58 C29.93 38.88, 23.74 40.05, 19.01 39.49 C14.28 38.93, 8.7 36.32, 5.53 33.21 C2.37 30.09, 0.12 25.01, 0.01 20.79 C-0.11 16.57, 1.87 11.35, 4.84 7.92 C7.82 4.48, 15.52 1.34, 17.85 0.19 C20.18 -0.96, 18.67 0.69, 18.82 1.04 M21.7 0.28 C26.17 0.05, 32.72 2.17, 36.34 4.83 C39.97 7.48, 42.73 12.15, 43.46 16.21 C44.18 20.27, 43.05 25.66, 40.7 29.21 C38.36 32.75, 33.69 36, 29.39 37.46 C25.08 38.92, 19.3 39.33, 14.87 37.97 C10.45 36.62, 5.32 32.94, 2.82 29.33 C0.32 25.72, -1.07 20.48, -0.14 16.33 C0.78 12.18, 4.6 7.16, 8.35 4.44 C12.1 1.72, 19.94 0.77, 22.35 0 C24.77 -0.76, 22.91 -0.47, 22.87 -0.16" stroke="none" stroke-width="0" fill="#d0bfff"></path><path d="M21.46 0.22 C25.96 -0.06, 32.8 1.86, 36.57 4.44 C40.34 7.02, 43.32 11.5, 44.06 15.7 C44.8 19.91, 43.32 25.88, 40.99 29.67 C38.67 33.47, 34.55 37.13, 30.11 38.46 C25.66 39.8, 18.87 39.26, 14.34 37.69 C9.81 36.13, 5.29 32.59, 2.91 29.07 C0.53 25.54, -0.8 20.7, 0.08 16.55 C0.96 12.4, 4.4 6.88, 8.18 4.18 C11.97 1.48, 20.2 0.91, 22.78 0.34 C25.37 -0.22, 23.82 0.49, 23.69 0.81 M23.84 0.68 C28.35 0.71, 34.55 2.46, 37.85 5.23 C41.14 7.99, 43.24 13, 43.59 17.28 C43.94 21.55, 42.5 27.26, 39.95 30.88 C37.39 34.5, 32.83 37.83, 28.27 39 C23.7 40.18, 17.01 39.7, 12.55 37.94 C8.08 36.17, 3.54 32.41, 1.5 28.41 C-0.55 24.41, -1.13 17.98, 0.26 13.93 C1.65 9.87, 6 6.45, 9.82 4.1 C13.65 1.75, 20.78 0.5, 23.21 -0.17 C25.63 -0.84, 24.2 -0.35, 24.37 0.08" stroke="#1e1e1e" stroke-width="2" fill="none"></path></g><g transform="translate(26.46960382348425 72.15993702278865) rotate(0 49.229949951171875 12.5)"><text x="0" y="0" font-family="Virgil, Segoe UI Emoji" font-size="20px" fill="#1e1e1e" text-anchor="start" style="white-space: pre;" direction="ltr" dominant-baseline="text-before-edge">category0</text></g><g transform="translate(123.90315515242719 23.19471201629858) rotate(0 89.28990936279297 12.5)"><text x="0" y="0" font-family="Virgil, Segoe UI Emoji" font-size="20px" fill="#1e1e1e" text-anchor="start" style="white-space: pre;" direction="ltr" dominant-baseline="text-before-edge">Category0-Article1</text></g><g stroke-linecap="round" transform="translate(16.860648790574146 102.06804534010371) rotate(0 48.317045581759714 10.98114672312704)"><path d="M5.49 0 C26.13 0.37, 46.69 3.1, 91.14 0 C94.8 -0.35, 96.79 -0.57, 96.63 5.49 C97.22 9.16, 98.58 11.35, 96.63 16.47 C96.25 19.51, 93.81 23.86, 91.14 21.96 C65.08 23.81, 47.13 18.99, 5.49 21.96 C1.65 25.02, 2.25 22.93, 0 16.47 C0.26 13.27, -1.58 9.13, 0 5.49 C-1.53 0.91, 3.57 1.56, 5.49 0" stroke="none" stroke-width="0" fill="#40c057"></path><path d="M5.49 0 C32.42 -0.67, 57.07 -1.91, 91.14 0 M5.49 0 C28.63 -1.26, 49.09 -0.9, 91.14 0 M91.14 0 C93.11 -0.94, 97.61 3.44, 96.63 5.49 M91.14 0 C92.6 0.96, 98.19 4.07, 96.63 5.49 M96.63 5.49 C96.89 9.96, 96.29 13.78, 96.63 16.47 M96.63 5.49 C96.38 9.32, 96.51 13.98, 96.63 16.47 M96.63 16.47 C97.67 21.49, 94 23.38, 91.14 21.96 M96.63 16.47 C94.72 21.44, 93.4 19.78, 91.14 21.96 M91.14 21.96 C58.8 22.77, 26.69 22.89, 5.49 21.96 M91.14 21.96 C59.98 21.53, 31.15 21.97, 5.49 21.96 M5.49 21.96 C3.17 21.09, 0.6 18.35, 0 16.47 M5.49 21.96 C3.75 21.18, 0.74 20.4, 0 16.47 M0 16.47 C-0.47 13.12, 0 8.84, 0 5.49 M0 16.47 C-0.21 12.63, 0.41 9.11, 0 5.49 M0 5.49 C0.13 1.88, 2.28 0.56, 5.49 0 M0 5.49 C-1.44 2.7, 1.92 0.53, 5.49 0" stroke="#1e1e1e" stroke-width="2" fill="none"></path></g><g transform="translate(26.369261925412957 104.28799256695129) rotate(0 31.048072814941406 10)"><text x="0" y="0" font-family="Virgil, Segoe UI Emoji" font-size="16px" fill="#1e1e1e" text-anchor="start" style="white-space: pre;" direction="ltr" dominant-baseline="text-before-edge">article0</text></g><g stroke-linecap="round" transform="translate(17.730316966983423 147.87853580420415) rotate(0 48.317045581759714 10.98114672312704)"><path d="M5.49 0 C30.24 -1.35, 55.15 -3.4, 91.14 0 C96 1.83, 96.28 2.71, 96.63 5.49 C96.61 8.45, 96.27 13.13, 96.63 16.47 C95.29 16.65, 93.97 18.39, 91.14 21.96 C60.02 23.9, 31.51 23.64, 5.49 21.96 C0.06 22.56, 2.11 20.66, 0 16.47 C-0.68 12.92, 1.11 11.24, 0 5.49 C2.11 3.09, -0.77 -2.08, 5.49 0" stroke="none" stroke-width="0" fill="#e9ecef"></path><path d="M5.49 0 C29.13 2.15, 56.02 2.62, 91.14 0 M5.49 0 C25.44 -0.29, 47.58 0.99, 91.14 0 M91.14 0 C92.88 0.84, 97.99 3.78, 96.63 5.49 M91.14 0 C96.58 -2.2, 97.83 2.58, 96.63 5.49 M96.63 5.49 C97.51 9.56, 95.98 12.14, 96.63 16.47 M96.63 5.49 C96.89 8.43, 96.38 11.01, 96.63 16.47 M96.63 16.47 C94.97 21.27, 93.58 20.07, 91.14 21.96 M96.63 16.47 C98.25 21.63, 92.87 21.26, 91.14 21.96 M91.14 21.96 C60 23.27, 25.89 20.94, 5.49 21.96 M91.14 21.96 C66.88 21.83, 41.57 21.38, 5.49 21.96 M5.49 21.96 C3.5 21.28, 0.65 20.37, 0 16.47 M5.49 21.96 C3.81 21.48, 2.17 19.1, 0 16.47 M0 16.47 C0.57 12.91, -0.39 7.8, 0 5.49 M0 16.47 C-0.06 13.16, 0.03 9.99, 0 5.49 M0 5.49 C-1.25 2.59, 1.91 0.46, 5.49 0 M0 5.49 C-0.99 1.54, 0.69 -0.87, 5.49 0" stroke="#1e1e1e" stroke-width="2" fill="none"></path></g><g transform="translate(22.124322167345554 151.89899778125618) rotate(0 42.52809143066406 10)"><text x="0" y="0" font-family="Virgil, Segoe UI Emoji" font-size="16px" fill="#1e1e1e" text-anchor="start" style="white-space: pre;" direction="ltr" dominant-baseline="text-before-edge">new article</text></g><g stroke-linecap="round" transform="translate(18.034313916172664 123.65011837943166) rotate(0 48.317045581759714 10.98114672312704)"><path d="M5.49 0 C31.55 2.86, 54.88 1.91, 91.14 0 C94.82 3.35, 93.98 1.45, 96.63 5.49 C95.84 6.68, 96.12 9.74, 96.63 16.47 C98.84 21.11, 92.19 21.78, 91.14 21.96 C56.4 23.76, 27.31 23.69, 5.49 21.96 C1.01 19.14, -3.33 18.6, 0 16.47 C1.06 14.15, -1.52 9.3, 0 5.49 C-3.5 -0.18, 4.49 0.82, 5.49 0" stroke="none" stroke-width="0" fill="#40c057"></path><path d="M5.49 0 C36.46 -2.26, 69.29 -2.54, 91.14 0 M5.49 0 C26.19 -0.27, 49.5 0.28, 91.14 0 M91.14 0 C96.35 -1.91, 97.68 2.48, 96.63 5.49 M91.14 0 C95.49 -0.5, 96.65 3.72, 96.63 5.49 M96.63 5.49 C95.84 8.89, 96.78 13.54, 96.63 16.47 M96.63 5.49 C96.13 9.84, 96.26 13.05, 96.63 16.47 M96.63 16.47 C98.04 21.43, 93.12 21.35, 91.14 21.96 M96.63 16.47 C98.39 18.98, 96.7 23.2, 91.14 21.96 M91.14 21.96 C62.69 22.44, 35.3 22.57, 5.49 21.96 M91.14 21.96 C70.03 20.86, 47.57 21.32, 5.49 21.96 M5.49 21.96 C3.55 21.55, 1.89 19.23, 0 16.47 M5.49 21.96 C3.69 21.9, 1.77 21.31, 0 16.47 M0 16.47 C0.06 13.5, 0.75 8.7, 0 5.49 M0 16.47 C-0.37 13.36, 0 9.96, 0 5.49 M0 5.49 C-0.86 1.58, 0.83 -0.76, 5.49 0 M0 5.49 C-0.25 0.03, 3.32 0, 5.49 0" stroke="#1e1e1e" stroke-width="2" fill="none"></path></g><g transform="translate(28.13898554228581 125.87006560627924) rotate(0 27.712066650390625 10)"><text x="0" y="0" font-family="Virgil, Segoe UI Emoji" font-size="16px" fill="#1e1e1e" text-anchor="start" style="white-space: pre;" direction="ltr" dominant-baseline="text-before-edge">article1</text></g><g stroke-linecap="round" transform="translate(12.662565870370827 183.91118233717862) rotate(0 69.95518106720692 19.041055201725158)"><path d="M9.52 0 C51.95 2.82, 91.7 -0.91, 130.39 0 C136.11 -1, 141.8 1.83, 139.91 9.52 C141.93 14.32, 137.34 17.08, 139.91 28.56 C142.97 37.16, 139.53 36.31, 130.39 38.08 C91.31 35.58, 50.53 36.87, 9.52 38.08 C2.25 39.82, 1.56 37.02, 0 28.56 C-3.08 20.27, 2.78 16.58, 0 9.52 C0.29 6, 6.19 -1.96, 9.52 0" stroke="none" stroke-width="0" fill="#b2f2bb"></path><path d="M9.52 0 C36.28 2.01, 66.53 -0.89, 130.39 0 M9.52 0 C51.61 -2.13, 92.67 -0.85, 130.39 0 M130.39 0 C137.34 -0.43, 139.93 4.81, 139.91 9.52 M130.39 0 C137.67 -1.32, 138.66 1.65, 139.91 9.52 M139.91 9.52 C141.24 13.88, 141.3 18.18, 139.91 28.56 M139.91 9.52 C140.46 16.93, 138.99 22.81, 139.91 28.56 M139.91 28.56 C141.43 33.9, 138.39 39.16, 130.39 38.08 M139.91 28.56 C140.6 33.98, 134.75 37.88, 130.39 38.08 M130.39 38.08 C85.89 39.5, 41.37 40.57, 9.52 38.08 M130.39 38.08 C99.12 38.01, 67.06 37.77, 9.52 38.08 M9.52 38.08 C4.79 38.03, 1.54 35.94, 0 28.56 M9.52 38.08 C4.48 37.26, -0.64 34.96, 0 28.56 M0 28.56 C-0.08 21.64, 0.41 12.68, 0 9.52 M0 28.56 C-0.42 22.01, -0.48 15.34, 0 9.52 M0 9.52 C-0.22 1.61, 4.47 0, 9.52 0 M0 9.52 C-0.22 3.27, 1.64 0.76, 9.52 0" stroke="#1e1e1e" stroke-width="2" fill="none"></path></g><g transform="translate(25.43675446696068 191.28621123321864) rotate(0 45.05995178222662 12.5)"><text x="0" y="0" font-family="Virgil, Segoe UI Emoji" font-size="20px" fill="#1e1e1e" text-anchor="start" style="white-space: pre;" direction="ltr" dominant-baseline="text-before-edge">category1</text></g><g stroke-linecap="round" transform="translate(168.6464791575329 82.2257847132214) rotate(0 91.52544660526291 12.02241035916586)"><path d="M6.01 0 C66.2 -0.37, 124.25 1.01, 177.04 0 C177.9 0.13, 183.8 0.25, 183.05 6.01 C184.74 8.6, 181.4 13.46, 183.05 18.03 C184.9 22.3, 179.69 24.29, 177.04 24.04 C111.76 26.22, 50.31 22.99, 6.01 24.04 C5.29 21.23, 1.98 22.89, 0 18.03 C0.73 13.67, -1.45 12.41, 0 6.01 C2.5 -1.03, 0.7 2.56, 6.01 0" stroke="none" stroke-width="0" fill="#d0bfff"></path><path d="M6.01 0 C50.77 0.5, 94.86 2.07, 177.04 0 M6.01 0 C72.15 -1.82, 137.8 -0.91, 177.04 0 M177.04 0 C181.47 1.73, 183.79 1.7, 183.05 6.01 M177.04 0 C181.18 -1.97, 182.8 0.19, 183.05 6.01 M183.05 6.01 C182.87 10.59, 183.42 14.28, 183.05 18.03 M183.05 6.01 C183.59 9.99, 182.87 14.75, 183.05 18.03 M183.05 18.03 C181.61 22.48, 182.92 22.22, 177.04 24.04 M183.05 18.03 C184.73 21.94, 178.75 21.86, 177.04 24.04 M177.04 24.04 C115.68 24.97, 49.86 23.85, 6.01 24.04 M177.04 24.04 C138.48 25.41, 98.75 25.02, 6.01 24.04 M6.01 24.04 C3.64 25.29, 0.96 22.61, 0 18.03 M6.01 24.04 C1.62 25.23, 1.26 20.21, 0 18.03 M0 18.03 C0.18 13.63, -0.98 8.29, 0 6.01 M0 18.03 C-0.15 14.52, 0.25 11.29, 0 6.01 M0 6.01 C-0.79 3.76, 3.77 -0.51, 6.01 0 M0 6.01 C2.05 3.37, 0.19 -0.27, 6.01 0" stroke="#1e1e1e" stroke-width="2" fill="none"></path></g><g transform="translate(203.5502511680147 86.10398160327532) rotate(0 37.20008087158203 10)"><text x="0" y="0" font-family="Virgil, Segoe UI Emoji" font-size="16px" fill="#1e1e1e" text-anchor="start" style="white-space: pre;" direction="ltr" dominant-baseline="text-before-edge">Section 0</text></g><g stroke-linecap="round"><g transform="translate(288.7793274820283 91.5651746465619) rotate(0 4.505820657273716 3.330389181463488)"><path d="M0.03 -0.22 C1.48 0.81, 7.43 5.32, 8.91 6.48 M-0.39 0.44 C1 1.66, 7.08 5.72, 8.59 6.84" stroke="#1e1e1e" stroke-width="1" fill="none"></path></g></g><mask></mask><g stroke-linecap="round"><g transform="translate(297.7909687965757 98.22595300948888) rotate(0 4.309915411305383 -3.330389181463488)"><path d="M0.08 0.18 C1.48 -0.94, 6.95 -5.4, 8.41 -6.6 M-0.31 -0.03 C1.21 -1.28, 7.59 -6.06, 9.1 -7.19" stroke="#1e1e1e" stroke-width="1" fill="none"></path></g></g><mask></mask><g stroke-linecap="round" transform="translate(170.21895693312285 107.36130921491258) rotate(0 91.52544660526291 12.02241035916586)"><path d="M6.01 0 C61.95 6.1, 118.87 0.81, 177.04 0 C181.4 -3.47, 183.97 2.56, 183.05 6.01 C182.49 8.52, 181.04 13.06, 183.05 18.03 C186.01 20.52, 178.15 23.91, 177.04 24.04 C120.68 21.44, 57.95 23.4, 6.01 24.04 C4.89 23.7, -2.16 21.12, 0 18.03 C0.37 14.59, -1.6 9.48, 0 6.01 C-2.51 -1.52, 4.99 1.99, 6.01 0" stroke="none" stroke-width="0" fill="#d0bfff"></path><path d="M6.01 0 C54.51 2.71, 105.33 2.78, 177.04 0 M6.01 0 C61.23 -1.89, 117.32 -0.34, 177.04 0 M177.04 0 C179.86 0.05, 184.57 1.95, 183.05 6.01 M177.04 0 C178.95 -1.78, 181.11 2.84, 183.05 6.01 M183.05 6.01 C182.26 10.86, 182.19 14.03, 183.05 18.03 M183.05 6.01 C183.12 10.72, 183.67 16, 183.05 18.03 M183.05 18.03 C184.25 22.17, 181.98 24.12, 177.04 24.04 M183.05 18.03 C183.55 21.85, 179.13 25.19, 177.04 24.04 M177.04 24.04 C121.49 23.09, 64.55 23.87, 6.01 24.04 M177.04 24.04 C128.77 24.46, 79.37 24.52, 6.01 24.04 M6.01 24.04 C2.04 24.18, 1.5 21.85, 0 18.03 M6.01 24.04 C3.75 25.63, 1.84 19.83, 0 18.03 M0 18.03 C0.72 15.58, 0.83 13.9, 0 6.01 M0 18.03 C-0.19 15, -0.63 10.66, 0 6.01 M0 6.01 C-1.85 1.83, 0.14 -1.89, 6.01 0 M0 6.01 C-1.92 0.09, 0.78 -1.66, 6.01 0" stroke="#1e1e1e" stroke-width="2" fill="none"></path></g><g transform="translate(205.12272894360444 111.23950610496559) rotate(0 33.86407470703125 10)"><text x="0" y="0" font-family="Virgil, Segoe UI Emoji" font-size="16px" fill="#1e1e1e" text-anchor="start" style="white-space: pre;" direction="ltr" dominant-baseline="text-before-edge">Section 1</text></g><g stroke-linecap="round"><g transform="translate(290.35180525761825 116.70069914825126) rotate(0 4.505820657273716 3.330389181463488)"><path d="M0.2 0.09 C1.63 1.25, 7.29 5.84, 8.73 6.89 M-0.12 -0.17 C1.39 0.9, 7.94 5.26, 9.39 6.39" stroke="#1e1e1e" stroke-width="1" fill="none"></path></g></g><mask></mask><g stroke-linecap="round"><g transform="translate(299.3634465721657 123.36147751117915) rotate(0 4.309915411305383 -3.330389181463488)"><path d="M-0.28 0.23 C1.1 -0.94, 6.99 -5.83, 8.48 -6.93 M0.23 0.05 C1.53 -1.1, 6.76 -5.46, 8.14 -6.62" stroke="#1e1e1e" stroke-width="1" fill="none"></path></g></g><mask></mask><g stroke-linecap="round" transform="translate(171.5013179190537 145.6439764289271) rotate(0 91.52544660526291 10.14166019115737)"><path d="M5.07 0 C54.79 -0.49, 99.59 -2.1, 177.98 0 C183.32 0.41, 186.02 0.46, 183.05 5.07 C182.9 5.91, 182.03 9.63, 183.05 15.21 C180.16 19.16, 179.98 22.52, 177.98 20.28 C116.89 19.49, 58.39 22.94, 5.07 20.28 C3.68 23, -0.48 20.5, 0 15.21 C-1.46 10.86, -1.7 10.9, 0 5.07 C-2.72 0.9, -0.49 -2.87, 5.07 0" stroke="none" stroke-width="0" fill="#e9ecef"></path><path d="M5.07 0 C68.08 -2.52, 136.35 -2.99, 177.98 0 M5.07 0 C71.3 -0.53, 136.47 0.17, 177.98 0 M177.98 0 C182.64 1.07, 181.58 0.84, 183.05 5.07 M177.98 0 C180.99 1.53, 183.81 2.04, 183.05 5.07 M183.05 5.07 C182.66 6.6, 183.48 10.21, 183.05 15.21 M183.05 5.07 C182.8 9.41, 183.54 12.92, 183.05 15.21 M183.05 15.21 C181.5 17.79, 183.27 18.82, 177.98 20.28 M183.05 15.21 C184.65 18.82, 181.7 21.33, 177.98 20.28 M177.98 20.28 C121.73 22.65, 65.32 22.82, 5.07 20.28 M177.98 20.28 C140.71 21.11, 103.11 19.76, 5.07 20.28 M5.07 20.28 C1.22 20.62, 1.84 17.71, 0 15.21 M5.07 20.28 C0.98 19.35, 0.93 19.23, 0 15.21 M0 15.21 C0.38 12.11, 0.8 8.67, 0 5.07 M0 15.21 C0.32 12.63, -0.33 10.22, 0 5.07 M0 5.07 C-0.51 2.61, 2.44 -0.84, 5.07 0 M0 5.07 C1.67 1.09, 0.9 -1.88, 5.07 0" stroke="#1e1e1e" stroke-width="2" fill="none"></path></g><g transform="translate(253.1326554546299 143.96645637252823) rotate(0 6.249992370605469 12.5)"><text x="0" y="0" font-family="Virgil, Segoe UI Emoji" font-size="20px" fill="#1e1e1e" text-anchor="start" style="white-space: pre;" direction="ltr" dominant-baseline="text-before-edge">+</text></g></svg>